**ABCDEFGHIJKLMNOPQRSTUVWXYZabcdefghijklmnopqrstuvwxyz**************************
**PARASOLID !"#$%&'()*+,-./:;<=>?@[\]^_`{|}~0123456789**************************
**PART1;
MC=AMD64;
MC_MODEL=Intel64 Family 6 Model 142 Stepping 10, GenuineIntel;
MC_ID=unknown;
OS=Windows_NT;
OS_RELEASE=unknown;
FRU=Parasolid Version 30.0, build 310,  6- 8-2018;
APPL=SOLIDWORKS 2018-2018211;
SITE=;
USER=unknown;
FORMAT=text;
GUISE=transmit;
KEY=link;
FILE=link.x_t;
DATE=Mon Sep 14 15:27:36 2020;
**PART2;
SCH=SCH_3000310_30000;
USFLD_SIZE=0;
**PART3;
**END_OF_HEADER*****************************************************************
T51 : TRANSMIT FILE created by modeller version 300031023 SCH_3000310_30000_1300
6205 0 10 19 CCCCCCCI4 mesh1006 0 I8 polyline1008 0 CCCCCCCCCCZ1 17 2 3 0 0 0 0
 0 0 0 1e3 1e-8 0 0 0 1 0 1 4 81 255 1 2 17 5 1 0 0 0 0 0 70 11 CI9 list_type0 0
 1 uI10 notransmit0 0 1 lCCCDCCDI12 finger_index0 0 1 dI12 finger_block1012 0 CZ
3 0 4 T1 0 0 1 20 1 6 6 11 255 4 15 0 1 7 8 1 9 0 0 0 12 33 CCCCCCI4 mesh1006 0
 I8 polyline1008 0 CCCCCCCDI5 owner1040 0 CCCCCCI13 boundary_mesh1006 0 I17 boun
dary_polyline1008 0 CCCA16 index_map_offset0 0 1 dA9 index_map82 0 A17 node_id_i
ndex_map82 0 A20 schema_embedding_map82 0 A5 child12 0 A14 lowest_node_id0 0 1 d
Z7 158 10 11 0 0 0 0 0 0 1e3 1e-8 4 12 0 1 0 1 1 13 14 15 16 0 0 17 18 19 0 0 0
 0 0 0 100 255 8 16 4 0 0 .402741403076902 -.915313805340905 625632314369538e-30
 4062387316023555e-31 -504770227351422e-30 -1 .915313805340905 .402741403076902
 168544049704856e-30 1.772630672745875 .2390908706738215 .470016833873875 1 3 ?1
1 9 13 0 1 12 20 1 21 4 0 0 12 12 3937 22 23 0 0 0 0 0 0 1e3 1e-8 9 24 7 1 0 1 1
 25 26 27 28 0 0 29 30 31 0 0 0 0 0 0 100 20 14 9 0 0 .933814856568548 -.3577566
402624295 0 .3577566402624295 .933814856568548 0 0 0 1 .229397203947099 .4312396
269167185 .0630120611082994 1 3 ?11 21 11 0 1 24 32 1 33 9 0 0 12 24 3937 34 35
 0 0 0 0 0 0 1e3 1e-8 21 36 12 1 0 1 1 37 38 39 40 0 0 41 42 43 0 0 0 0 0 0 100
 32 12 21 0 0 .981858017179776 .1896175996573065 0 -.1896175996573065 .981858017
179776 0 0 0 1 .1614234422972375 .608664449664743 .0850120611082994 1 3 ?11 33 9
 0 1 36 44 1 45 21 0 0 12 36 511 46 47 0 0 0 0 0 0 1e3 1e-8 33 48 24 1 0 1 1 49
 50 51 52 0 0 53 54 55 0 0 0 0 0 0 100 44 10 33 0 0 .980315775157797 .1974360174
25312 0 -.197436017425312 .980315775157797 0 0 0 1 .2106407822916945 .3381096282
76728 .0610120611082994 1 3 ?11 45 7 0 1 48 56 1 57 33 0 0 12 48 511 58 59 0 0 0
 0 0 0 1e3 1e-8 45 60 36 1 0 1 1 61 62 63 64 0 0 65 66 67 0 0 0 0 0 0 100 56 8 4
5 0 0 .933814856568548 -.3577566402624295 0 .3577566402624295 .933814856568548 0
 0 0 1 .195410323122168 .519952038290731 .0830120611082994 1 3 ?11 57 5 0 1 60 6
8 1 69 45 0 0 12 60 511 70 71 0 0 0 0 0 0 1e3 1e-8 57 72 48 1 0 1 1 73 74 75 76
 0 0 77 78 79 0 0 0 0 0 0 100 68 6 57 0 0 .981858017179776 .1896175996573065 0 -
.1896175996573065 .981858017179776 0 0 0 1 .1434097703297934 .515387938032664 .1
050120611082994 1 3 ?11 69 3 0 1 72 80 1 81 57 0 0 12 72 3937 82 83 0 0 0 0 0 0
 1e3 1e-8 69 84 60 1 0 1 1 85 86 87 88 0 0 89 90 91 0 0 0 0 0 0 100 80 4 69 0 0
 .369871104911297 -.929083077960037 0 .929083077960037 .369871104911297 0 0 0 1
 .1253960983623492 .422111426400585 .1070120611082994 1 3 ?11 81 1 0 1 84 92 1 0
 69 0 0 12 84 520 93 94 0 0 0 0 0 0 1e3 1e-8 81 95 72 1 0 1 1 96 97 98 99 0 0 10
0 101 102 0 0 0 0 0 0 100 92 2 81 0 0 .929083077960037 .369871104911297 0 -.3698
71104911297 .929083077960037 0 0 0 1 .0902583433957761 .3338485339943815 .127012
0611082994 1 3 ?81 1 93 520 5 84 0 0 0 0 103 70 94 0 4 T84 0 0 3 20 1 104 104 13
 255 96 94 0 84 0 105 0 0 106 0 50 255 97 89 0 107 108 0 0 +.005 .1 .002 -1 -121
4306433183764e-31 0 1214306433183764e-31 -1 0 30 255 98 93 0 101 109 0 0 +.005 .
1 .002 0 0 -1 29 255 99 70 0 110 111 0 .005 -.1 0 19 8 CCCCCCCA5 owner12 0 Z100
 28 0 84 106 0 112 V0 16 255 101 77 0 ?113 0 114 98 0 0 84 18 255 102 25 0 115 0
 116 117 ?84 17 255 115 0 118 119 120 102 121 122 0 123 +18 116 22 0 120 102 124
 125 ?84 29 117 27 0 102 125 126 .005 -.1 .002 29 125 24 0 116 127 117 -.005 -.1
 .002 29 126 73 0 128 117 129 .005 .1 0 18 128 64 0 130 131 0 126 ?84 29 129 72
 0 131 126 111 -.005 .1 0 18 131 63 0 132 133 128 129 ?84 29 111 71 0 133 129 99
 -.005 -.1 0 18 133 62 0 134 110 131 111 ?84 17 134 0 135 136 137 133 138 139 0
 140 +18 110 61 0 141 142 133 99 ?84 17 141 0 143 123 140 110 144 145 0 146 +18
 142 16 0 147 124 110 148 ?84 17 147 0 149 113 150 142 151 152 0 119 -18 124 19
 0 151 116 142 127 ?84 29 148 18 0 142 0 127 .005 .1 .002 29 127 21 0 124 148 12
5 -.005 .1 .002 17 151 0 118 120 119 124 147 152 0 150 +15 255 118 3 0 119 105 1
53 17 120 0 118 115 151 116 154 155 0 136 +17 119 0 118 151 115 142 156 157 0 15
8 +16 152 7 0 ?151 155 157 159 0 0 84 17 150 0 149 147 132 124 137 114 0 154 -15
 149 82 0 132 160 0 17 132 0 149 150 113 131 130 161 0 137 +17 137 0 135 134 154
 131 150 114 0 138 +16 114 76 0 ?137 101 162 109 0 0 84 17 154 0 135 137 136 124
 120 155 0 0 -15 135 80 0 134 163 0 17 136 0 135 154 134 116 140 162 0 121 -16 1
55 10 0 ?120 122 152 164 0 0 84 16 122 13 0 ?115 165 155 166 0 0 84 30 164 11 0
 155 159 166 0 +-.005 .1 .002 1214306433183764e-31 -1 0 30 159 8 0 152 167 164 0
 +-.005 .1 .002 -1 0 0 30 166 14 0 122 164 168 0 +-.005 -.1 .002 1 0 0 30 168 69
 0 169 166 170 0 +.005 .1 0 -1214306433183764e-31 1 0 16 169 57 0 ?171 161 172 1
68 0 0 84 30 170 68 0 161 168 173 0 +-.005 .1 0 -1 0 0 16 161 53 0 ?132 139 169
 170 0 0 84 30 173 67 0 139 170 174 0 +-.005 .1 0 1214306433183764e-31 -1 0 16 1
39 49 0 ?134 145 161 173 0 0 84 30 174 66 0 145 173 175 0 +-.005 -.1 0 1 0 0 16
 145 45 0 ?141 157 139 174 0 0 84 30 175 90 0 165 174 176 0 +.005 -.1 .002 0 0 -
1 16 165 74 0 ?146 162 122 175 0 0 84 30 176 91 0 162 175 109 0 +-.005 -.1 .002
 0 0 -1 16 162 75 0 ?140 114 165 176 0 0 84 30 109 92 0 114 176 98 0 +-.005 .1 .
002 0 0 -1 17 140 0 143 141 121 133 136 162 0 144 +15 143 78 0 141 177 0 17 121
 0 143 140 123 116 115 122 0 0 -17 144 0 178 138 179 133 141 145 0 0 -15 178 44
 0 179 180 181 17 138 0 178 130 144 131 134 139 0 0 -17 179 0 178 144 130 110 17
1 169 0 0 -17 130 0 178 179 138 128 132 161 0 113 -17 171 0 182 158 146 128 179
 169 0 0 +15 182 84 0 171 107 0 17 158 0 182 156 171 142 113 101 0 0 -17 146 0 1
82 171 156 110 123 165 0 179 +17 156 0 182 146 158 102 119 157 0 0 -17 123 0 143
 121 141 102 146 165 0 156 -16 157 4 0 ?119 152 145 167 0 0 84 30 167 5 0 157 18
3 159 0 +.005 .1 .002 -1214306433183764e-31 1 0 31 255 183 142 0 184 185 167 0 +
1127570259384924e-32 -.095 0 0 0 1 1 0 0 .002 16 184 120 0 ?186 172 187 183 0 0
 84 31 185 143 0 172 188 183 0 +1127570259384924e-32 -.095 .002 0 0 1 1 0 0 .002
 16 172 123 0 ?189 169 184 185 0 0 84 31 188 180 0 190 191 185 0 +11275702593849
24e-32 .095 0 0 0 1 -1 0 0 .002 16 190 158 0 ?192 187 0 188 0 0 84 31 191 181 0
 187 0 188 0 +1127570259384924e-32 .095 .002 0 0 1 -1 0 0 .002 16 187 161 0 ?193
 184 190 191 0 0 84 17 193 0 194 193 193 0 195 187 0 0 +15 194 167 0 193 196 197
 17 195 0 153 195 195 0 193 187 0 0 -15 153 152 0 195 105 0 14 255 105 155 198 ?
180 0 199 96 200 +0 0 180 0 112 81 1 198 512 201 105 202 0 0 203 204 14 180 149
 203 ?107 105 178 96 205 -0 0 107 105 112 15 199 114 0 206 105 118 50 200 2 0 10
5 207 205 0 +0 0 .002 0 0 1 1 0 0 13 112 29 0 0 0 0 0 0 100 105 51 255 207 139 0
 208 209 200 0 -1127570259384924e-32 -.095 .002 0 0 -1 .002 -1 0 0 50 205 65 0 1
80 200 210 0 +0 0 0 0 0 1 1 0 0 50 210 86 0 177 205 211 0 +-.005 -.1 .002 0 1 0
 0 0 1 14 177 79 212 ?208 163 143 96 210 -0 0 208 163 112 50 211 87 0 163 210 10
8 0 +-.005 .1 .002 1 1214306433183764e-31 0 -1214306433183764e-31 1 0 14 163 81
 213 ?177 160 135 96 211 -0 0 177 160 112 50 108 88 0 160 211 97 0 +-.005 .1 .00
2 0 -1 0 0 0 -1 14 160 83 214 ?163 107 149 96 108 -0 0 163 107 112 81 1 214 515
 201 160 215 0 216 213 217 14 107 85 216 ?160 180 182 96 97 -0 0 160 180 112 81
 1 216 514 201 107 218 0 203 214 219 80 255 1 201 0 220 8001 0 0 0 0 3 5 0 0 0 F
FFFTFTFFFFFFF2 81 1 218 506 221 107 0 216 215 222 223 81 1 203 513 201 180 224 0
 198 216 225 83 255 3 219 .792156862745098 .819607843137255 .933333333333333 81
 1 224 498 221 180 0 203 202 226 227 83 3 225 .792156862745098 .819607843137255
 .933333333333333 80 1 221 228 229 9000 1 1 1 1 1 1 1 1 0 FFFFTFTFFFFFFF1 81 1 2
02 496 221 105 0 198 0 224 230 81 1 226 500 221 177 0 212 224 231 232 82 255 1 2
27 1160577139 81 1 212 517 201 177 226 0 213 233 234 81 1 231 502 221 163 0 213
 226 215 235 82 1 232 1147863155 81 1 213 516 201 163 231 0 214 212 236 81 1 215
 504 221 160 0 214 231 218 237 82 1 235 1148125299 82 1 237 1148387443 83 3 236
 .792156862745098 .819607843137255 .933333333333333 81 1 233 518 201 208 222 0 2
12 238 239 83 3 234 .792156862745098 .819607843137255 .933333333333333 14 208 12
6 233 ?196 177 240 96 207 +0 0 196 177 112 81 1 222 508 221 208 0 233 218 241 24
2 81 1 238 519 201 196 241 0 233 0 243 83 3 239 .792156862745098 .81960784313725
5 .933333333333333 14 196 164 238 ?0 208 194 96 209 +0 0 0 208 112 81 1 241 510
 221 196 0 238 222 0 244 83 3 243 .792156862745098 .819607843137255 .93333333333
3333 82 1 244 1157562483 51 209 177 0 196 0 207 0 -1127570259384924e-32 .095 .00
2 0 0 -1 .002 -1 0 0 82 1 242 1153499251 15 240 129 0 189 208 245 17 189 0 240 1
89 189 0 206 172 0 0 +15 245 130 0 246 208 0 17 246 0 245 246 246 0 186 184 0 0
 -17 186 0 181 186 186 0 246 184 0 0 +15 181 109 0 186 180 247 15 247 147 0 192
 180 0 17 192 0 247 192 192 0 248 190 0 0 +17 248 0 197 248 248 0 192 190 0 0 -1
5 197 168 0 248 196 0 17 206 0 199 206 206 0 189 172 0 0 -82 1 230 1161101427 79
 255 14 229 SWEntUnchanged82 1 223 1148649587 79 15 220 SDL/TYSA_COLOUR83 3 217
 .792156862745098 .819607843137255 .933333333333333 83 3 204 .792156862745098 .8
19607843137255 .933333333333333 17 113 0 149 132 147 128 158 101 0 171 +19 106 9
5 0 84 0 100 96 S0 74 4 CI16 index_map_offset0 0 1 dCCZ20 104 3 0 0 241 238 93 0
 0 0 0 0 0 0 0 0 0 0 0 0 0 0 0 0 80 1 5 249 250 8017 0 0 0 0 0 0 0 0 0 TTTTTTTTT
TTTTF3 84 255 4 103 pend79 13 250 SDL/TYSA_NAME81 1 82 3937 5 72 251 0 0 0 252 7
0 83 0 4 T72 0 0 4 20 1 253 253 13 85 94 0 72 0 254 0 0 255 0 50 86 89 0 256 257
 0 0 +.025 .025 .02 -1 -277555756156289e-30 0 277555756156289e-30 -1 0 30 87 93
 0 90 258 0 0 +.025 .025 .02 0 0 -1 29 88 70 0 259 260 0 .025 -.025 0 19 89 28 0
 72 255 0 261 V0 16 90 77 0 ?262 0 263 87 0 0 72 18 91 25 0 264 0 265 266 ?72 17
 264 0 267 268 269 91 270 271 0 272 +18 265 22 0 269 91 273 274 ?72 29 266 27 0
 91 274 275 .025 -.025 .02 29 274 24 0 265 276 266 -.025 -.025 .02 29 275 73 0 2
77 266 278 .025 .025 0 18 277 64 0 279 280 0 275 ?72 29 278 72 0 280 275 260 -.0
25 .025 0 18 280 63 0 281 282 277 278 ?72 29 260 71 0 282 278 88 -.025 -.025 0 1
8 282 62 0 283 259 280 260 ?72 17 283 0 284 285 286 282 287 288 0 289 +18 259 61
 0 290 291 282 88 ?72 17 290 0 292 272 289 259 293 294 0 295 +18 291 16 0 296 27
3 259 297 ?72 17 296 0 298 262 299 291 300 301 0 268 -18 273 19 0 300 265 291 27
6 ?72 29 297 18 0 291 0 276 .025 .025 .02 29 276 21 0 273 297 274 -.025 .025 .02
 17 300 0 267 269 268 273 296 301 0 299 +15 267 3 0 268 254 302 17 269 0 267 264
 300 265 303 304 0 285 +17 268 0 267 300 264 291 305 306 0 307 +16 301 7 0 ?300
 304 306 308 0 0 72 17 299 0 298 296 281 273 286 263 0 303 -15 298 82 0 281 309
 0 17 281 0 298 299 262 280 279 310 0 286 +17 286 0 284 283 303 280 299 263 0 28
7 +16 263 76 0 ?286 90 311 258 0 0 72 17 303 0 284 286 285 273 269 304 0 0 -15 2
84 80 0 283 312 0 17 285 0 284 303 283 265 289 311 0 270 -16 304 10 0 ?269 271 3
01 313 0 0 72 16 271 13 0 ?264 314 304 315 0 0 72 30 313 11 0 304 308 315 0 +-.0
25 .025 .02 277555756156289e-30 -1 0 30 308 8 0 301 316 313 0 +-.025 .025 .02 -1
 0 0 30 315 14 0 271 313 317 0 +-.025 -.025 .02 1 0 0 30 317 69 0 318 315 319 0
 +.025 .025 0 -277555756156289e-30 1 0 16 318 57 0 ?320 310 321 317 0 0 72 30 31
9 68 0 310 317 322 0 +-.025 .025 0 -1 0 0 16 310 53 0 ?281 288 318 319 0 0 72 30
 322 67 0 288 319 323 0 +-.025 .025 0 277555756156289e-30 -1 0 16 288 49 0 ?283
 294 310 322 0 0 72 30 323 66 0 294 322 324 0 +-.025 -.025 0 1 0 0 16 294 45 0 ?
290 306 288 323 0 0 72 30 324 90 0 314 323 325 0 +.025 -.025 .02 0 0 -1 16 314 7
4 0 ?295 311 271 324 0 0 72 30 325 91 0 311 324 258 0 +-.025 -.025 .02 0 0 -1 16
 311 75 0 ?289 263 314 325 0 0 72 30 258 92 0 263 325 87 0 +-.025 .025 .02 0 0 -
1 17 289 0 292 290 270 282 285 311 0 293 +15 292 78 0 290 326 0 17 270 0 292 289
 272 265 264 271 0 0 -17 293 0 327 287 328 282 290 294 0 0 -15 327 44 0 328 329
 330 17 287 0 327 279 293 280 283 288 0 0 -17 328 0 327 293 279 259 320 318 0 0
 -17 279 0 327 328 287 277 281 310 0 262 -17 320 0 331 307 295 277 328 318 0 0 +
15 331 84 0 320 256 0 17 307 0 331 305 320 291 262 90 0 0 -17 295 0 331 320 305
 259 272 314 0 328 +17 305 0 331 295 307 91 268 306 0 0 -17 272 0 292 270 290 91
 295 314 0 305 -16 306 4 0 ?268 301 294 316 0 0 72 30 316 5 0 306 332 308 0 +.02
5 .025 .02 -277555756156289e-30 1 0 31 332 142 0 333 334 316 0 +-104083408558608
4e-32 0 0 0 0 1 1 0 0 .002 16 333 120 0 ?335 321 0 332 0 0 72 31 334 143 0 321 0
 332 0 +-1040834085586084e-32 0 .02 0 0 1 1 0 0 .002 16 321 123 0 ?336 318 333 3
34 0 0 72 17 336 0 337 336 336 0 338 321 0 0 +15 337 129 0 336 339 340 17 338 0
 302 338 338 0 336 321 0 0 -15 302 114 0 338 254 0 14 254 117 341 ?329 0 267 85
 342 +0 0 329 0 261 81 1 341 3930 201 254 343 0 0 344 345 14 329 111 344 ?256 25
4 327 85 346 -0 0 256 254 261 50 342 2 0 254 347 346 0 +0 0 .02 0 0 1 1 0 0 13 2
61 29 0 0 0 0 0 0 89 254 51 347 139 0 339 0 342 0 --1040834085586084e-32 0 .02 0
 0 -1 .002 -1 0 0 50 346 65 0 329 342 348 0 +0 0 0 0 0 1 1 0 0 50 348 86 0 326 3
46 349 0 +-.025 -.025 .02 0 1 0 0 0 1 14 326 79 350 ?339 312 292 85 348 -0 0 339
 312 261 50 349 87 0 312 348 257 0 +-.025 .025 .02 1 277555756156289e-30 0 -2775
55756156289e-30 1 0 14 312 81 351 ?326 309 284 85 349 -0 0 326 309 261 50 257 88
 0 309 349 86 0 +-.025 .025 .02 0 -1 0 0 0 -1 14 309 83 352 ?312 256 298 85 257
 -0 0 312 256 261 81 1 352 3933 201 309 353 0 354 351 355 14 256 85 354 ?309 329
 331 85 86 -0 0 309 329 261 81 1 354 3932 201 256 356 0 344 352 357 81 1 356 392
6 221 256 0 354 353 358 359 81 1 344 3931 201 329 360 0 341 354 361 83 3 357 .79
2156862745098 .819607843137255 .933333333333333 81 1 360 3918 221 329 0 344 343
 362 363 83 3 361 .792156862745098 .819607843137255 .933333333333333 81 1 343 39
16 221 254 0 341 0 360 364 81 1 362 3920 221 326 0 350 360 365 366 82 1 363 -150
5820569 81 1 350 3935 201 326 362 0 351 367 368 81 1 365 3922 221 312 0 351 362
 353 369 82 1 366 -1513160601 81 1 351 3934 201 312 365 0 352 350 370 81 1 353 3
924 221 309 0 352 365 356 371 82 1 369 -1512898457 82 1 371 -1512636313 83 3 370
 .792156862745098 .819607843137255 .933333333333333 81 1 367 3936 201 339 358 0
 350 0 372 83 3 368 .792156862745098 .819607843137255 .933333333333333 14 339 12
6 367 ?0 326 337 85 347 +0 0 0 326 261 81 1 358 3928 221 339 0 367 356 0 373 83
 3 372 .792156862745098 .819607843137255 .933333333333333 82 1 373 -1507524505 8
2 1 364 -1505296281 82 1 359 -1512374169 83 3 355 .792156862745098 .819607843137
255 .933333333333333 83 3 345 .792156862745098 .819607843137255 .933333333333333
 15 340 130 0 374 339 0 17 374 0 340 374 374 0 335 333 0 0 -17 335 0 330 335 335
 0 374 333 0 0 +15 330 109 0 335 329 0 17 262 0 298 281 296 277 307 90 0 320 +19
 255 95 0 72 0 89 85 S0 74 20 253 4 0 0 358 251 367 82 0 0 0 0 0 0 0 0 0 0 0 0 0
 0 0 0 81 2 251 181 375 72 0 82 0 0 376 0 80 2 375 377 378 8004 0 0 0 0 3 5 0 0
 0 FFTFFFFFFFFFFF2 3 83 1 376 1e3 79 16 378 SDL/TYSA_DENSITY84 4 252 mass81 1 70
 511 5 60 0 0 0 0 379 70 71 0 4 T60 0 0 3 20 1 380 380 13 73 94 0 60 0 381 0 0 3
82 0 50 74 89 0 383 384 0 0 +.005 .1 .002 -1 -1214306433183764e-31 0 12143064331
83764e-31 -1 0 30 75 93 0 78 385 0 0 +.005 .1 .002 0 0 -1 29 76 70 0 386 387 0 .
005 -.1 0 19 77 28 0 60 382 0 388 V0 16 78 77 0 ?389 0 390 75 0 0 60 18 79 25 0
 391 0 392 393 ?60 17 391 0 394 395 396 79 397 398 0 399 +18 392 22 0 396 79 400
 401 ?60 29 393 27 0 79 401 402 .005 -.1 .002 29 401 24 0 392 403 393 -.005 -.1
 .002 29 402 73 0 404 393 405 .005 .1 0 18 404 64 0 406 407 0 402 ?60 29 405 72
 0 407 402 387 -.005 .1 0 18 407 63 0 408 409 404 405 ?60 29 387 71 0 409 405 76
 -.005 -.1 0 18 409 62 0 410 386 407 387 ?60 17 410 0 411 412 413 409 414 415 0
 416 +18 386 61 0 417 418 409 76 ?60 17 417 0 419 399 416 386 420 421 0 422 +18
 418 16 0 423 400 386 424 ?60 17 423 0 425 389 426 418 427 428 0 395 -18 400 19
 0 427 392 418 403 ?60 29 424 18 0 418 0 403 .005 .1 .002 29 403 21 0 400 424 40
1 -.005 .1 .002 17 427 0 394 396 395 400 423 428 0 426 +15 394 3 0 395 381 429 1
7 396 0 394 391 427 392 430 431 0 412 +17 395 0 394 427 391 418 432 433 0 434 +1
6 428 7 0 ?427 431 433 435 0 0 60 17 426 0 425 423 408 400 413 390 0 430 -15 425
 82 0 408 436 0 17 408 0 425 426 389 407 406 437 0 413 +17 413 0 411 410 430 407
 426 390 0 414 +16 390 76 0 ?413 78 438 385 0 0 60 17 430 0 411 413 412 400 396
 431 0 0 -15 411 80 0 410 439 0 17 412 0 411 430 410 392 416 438 0 397 -16 431 1
0 0 ?396 398 428 440 0 0 60 16 398 13 0 ?391 441 431 442 0 0 60 30 440 11 0 431
 435 442 0 +-.005 .1 .002 1214306433183764e-31 -1 0 30 435 8 0 428 443 440 0 +-.
005 .1 .002 -1 0 0 30 442 14 0 398 440 444 0 +-.005 -.1 .002 1 0 0 30 444 69 0 4
45 442 446 0 +.005 .1 0 -1214306433183764e-31 1 0 16 445 57 0 ?447 437 448 444 0
 0 60 30 446 68 0 437 444 449 0 +-.005 .1 0 -1 0 0 16 437 53 0 ?408 415 445 446
 0 0 60 30 449 67 0 415 446 450 0 +-.005 .1 0 1214306433183764e-31 -1 0 16 415 4
9 0 ?410 421 437 449 0 0 60 30 450 66 0 421 449 451 0 +-.005 -.1 0 1 0 0 16 421
 45 0 ?417 433 415 450 0 0 60 30 451 90 0 441 450 452 0 +.005 -.1 .002 0 0 -1 16
 441 74 0 ?422 438 398 451 0 0 60 30 452 91 0 438 451 385 0 +-.005 -.1 .002 0 0
 -1 16 438 75 0 ?416 390 441 452 0 0 60 30 385 92 0 390 452 75 0 +-.005 .1 .002
 0 0 -1 17 416 0 419 417 397 409 412 438 0 420 +15 419 78 0 417 453 0 17 397 0 4
19 416 399 392 391 398 0 0 -17 420 0 454 414 455 409 417 421 0 0 -15 454 44 0 45
5 456 457 17 414 0 454 406 420 407 410 415 0 0 -17 455 0 454 420 406 386 447 445
 0 0 -17 406 0 454 455 414 404 408 437 0 389 -17 447 0 458 434 422 404 455 445 0
 0 +15 458 84 0 447 383 0 17 434 0 458 432 447 418 389 78 0 0 -17 422 0 458 447
 432 386 399 441 0 455 +17 432 0 458 422 434 79 395 433 0 0 -17 399 0 419 397 41
7 79 422 441 0 432 -16 433 4 0 ?395 428 421 443 0 0 60 30 443 5 0 433 459 435 0
 +.005 .1 .002 -1214306433183764e-31 1 0 31 459 142 0 460 461 443 0 +11275702593
84924e-32 -.095 0 0 0 1 1 0 0 .002 16 460 120 0 ?462 448 463 459 0 0 60 31 461 1
43 0 448 464 459 0 +1127570259384924e-32 -.095 .002 0 0 1 1 0 0 .002 16 448 123
 0 ?465 445 460 461 0 0 60 31 464 180 0 466 467 461 0 +1127570259384924e-32 .095
 0 0 0 1 -1 0 0 .002 16 466 158 0 ?468 463 0 464 0 0 60 31 467 181 0 463 0 464 0
 +1127570259384924e-32 .095 .002 0 0 1 -1 0 0 .002 16 463 161 0 ?469 460 466 467
 0 0 60 17 469 0 470 469 469 0 471 463 0 0 +15 470 167 0 469 472 473 17 471 0 42
9 471 471 0 469 463 0 0 -15 429 152 0 471 381 0 14 381 155 474 ?456 0 475 73 476
 +0 0 456 0 388 81 1 474 503 201 381 477 0 0 478 479 14 456 149 478 ?383 381 454
 73 480 -0 0 383 381 388 15 475 114 0 481 381 394 50 476 2 0 381 482 480 0 +0 0
 .002 0 0 1 1 0 0 13 388 29 0 0 0 0 0 0 77 381 51 482 139 0 483 484 476 0 -11275
70259384924e-32 -.095 .002 0 0 -1 .002 -1 0 0 50 480 65 0 456 476 485 0 +0 0 0 0
 0 1 1 0 0 50 485 86 0 453 480 486 0 +-.005 -.1 .002 0 1 0 0 0 1 14 453 79 487 ?
483 439 419 73 485 -0 0 483 439 388 50 486 87 0 439 485 384 0 +-.005 .1 .002 1 1
214306433183764e-31 0 -1214306433183764e-31 1 0 14 439 81 488 ?453 436 411 73 48
6 -0 0 453 436 388 50 384 88 0 436 486 74 0 +-.005 .1 .002 0 -1 0 0 0 -1 14 436
 83 489 ?439 383 425 73 384 -0 0 439 383 388 81 1 489 506 201 436 490 0 491 488
 492 14 383 85 491 ?436 456 458 73 74 -0 0 436 456 388 81 1 491 505 201 383 493
 0 478 489 494 81 1 493 497 221 383 0 491 490 495 496 81 1 478 504 201 456 497 0
 474 491 498 83 3 494 .792156862745098 .819607843137255 .933333333333333 81 1 49
7 489 221 456 0 478 477 499 500 83 3 498 .792156862745098 .819607843137255 .9333
33333333333 81 1 477 487 221 381 0 474 0 497 501 81 1 499 491 221 453 0 487 497
 502 503 82 1 500 1160577139 81 1 487 508 201 453 499 0 488 504 505 81 1 502 493
 221 439 0 488 499 490 506 82 1 503 1147863155 81 1 488 507 201 439 502 0 489 48
7 507 81 1 490 495 221 436 0 489 502 493 508 82 1 506 1148125299 82 1 508 114838
7443 83 3 507 .792156862745098 .819607843137255 .933333333333333 81 1 504 509 20
1 483 495 0 487 509 510 83 3 505 .792156862745098 .819607843137255 .933333333333
333 14 483 126 504 ?472 453 511 73 482 +0 0 472 453 388 81 1 495 499 221 483 0 5
04 493 512 513 81 1 509 510 201 472 512 0 504 0 514 83 3 510 .792156862745098 .8
19607843137255 .933333333333333 14 472 164 509 ?0 483 470 73 484 +0 0 0 483 388
 81 1 512 501 221 472 0 509 495 0 515 83 3 514 .792156862745098 .819607843137255
 .933333333333333 82 1 515 1157562483 51 484 177 0 472 0 482 0 -1127570259384924
e-32 .095 .002 0 0 -1 .002 -1 0 0 82 1 513 1153499251 15 511 129 0 465 483 516 1
7 465 0 511 465 465 0 481 448 0 0 +15 516 130 0 517 483 0 17 517 0 516 517 517 0
 462 460 0 0 -17 462 0 457 462 462 0 517 460 0 0 +15 457 109 0 462 456 518 15 51
8 147 0 468 456 0 17 468 0 518 468 468 0 519 466 0 0 +17 519 0 473 519 519 0 468
 466 0 0 -15 473 168 0 519 472 0 17 481 0 475 481 481 0 465 448 0 0 -82 1 501 11
61101427 82 1 496 1148649587 83 3 492 .792156862745098 .819607843137255 .9333333
33333333 83 3 479 .792156862745098 .819607843137255 .933333333333333 17 389 0 42
5 408 423 404 434 78 0 447 +19 382 95 0 60 0 77 73 S0 74 20 380 3 0 0 512 509 70
 0 0 0 0 0 0 0 0 0 0 0 0 0 0 0 0 0 84 5 379 pend181 1 58 511 5 48 0 0 0 0 520 70
 59 0 4 T48 0 0 3 20 1 521 521 13 61 94 0 48 0 522 0 0 523 0 50 62 89 0 524 525
 0 0 +.005 .1 .002 -1 -1214306433183764e-31 0 1214306433183764e-31 -1 0 30 63 93
 0 66 526 0 0 +.005 .1 .002 0 0 -1 29 64 70 0 527 528 0 .005 -.1 0 19 65 28 0 48
 523 0 529 V0 16 66 77 0 ?530 0 531 63 0 0 48 18 67 25 0 532 0 533 534 ?48 17 53
2 0 535 536 537 67 538 539 0 540 +18 533 22 0 537 67 541 542 ?48 29 534 27 0 67
 542 543 .005 -.1 .002 29 542 24 0 533 544 534 -.005 -.1 .002 29 543 73 0 545 53
4 546 .005 .1 0 18 545 64 0 547 548 0 543 ?48 29 546 72 0 548 543 528 -.005 .1 0
 18 548 63 0 549 550 545 546 ?48 29 528 71 0 550 546 64 -.005 -.1 0 18 550 62 0
 551 527 548 528 ?48 17 551 0 552 553 554 550 555 556 0 557 +18 527 61 0 558 559
 550 64 ?48 17 558 0 560 540 557 527 561 562 0 563 +18 559 16 0 564 541 527 565
 ?48 17 564 0 566 530 567 559 568 569 0 536 -18 541 19 0 568 533 559 544 ?48 29
 565 18 0 559 0 544 .005 .1 .002 29 544 21 0 541 565 542 -.005 .1 .002 17 568 0
 535 537 536 541 564 569 0 567 +15 535 3 0 536 522 570 17 537 0 535 532 568 533
 571 572 0 553 +17 536 0 535 568 532 559 573 574 0 575 +16 569 7 0 ?568 572 574
 576 0 0 48 17 567 0 566 564 549 541 554 531 0 571 -15 566 82 0 549 577 0 17 549
 0 566 567 530 548 547 578 0 554 +17 554 0 552 551 571 548 567 531 0 555 +16 531
 76 0 ?554 66 579 526 0 0 48 17 571 0 552 554 553 541 537 572 0 0 -15 552 80 0 5
51 580 0 17 553 0 552 571 551 533 557 579 0 538 -16 572 10 0 ?537 539 569 581 0
 0 48 16 539 13 0 ?532 582 572 583 0 0 48 30 581 11 0 572 576 583 0 +-.005 .1 .0
02 1214306433183764e-31 -1 0 30 576 8 0 569 584 581 0 +-.005 .1 .002 -1 0 0 30 5
83 14 0 539 581 585 0 +-.005 -.1 .002 1 0 0 30 585 69 0 586 583 587 0 +.005 .1 0
 -1214306433183764e-31 1 0 16 586 57 0 ?588 578 589 585 0 0 48 30 587 68 0 578 5
85 590 0 +-.005 .1 0 -1 0 0 16 578 53 0 ?549 556 586 587 0 0 48 30 590 67 0 556
 587 591 0 +-.005 .1 0 1214306433183764e-31 -1 0 16 556 49 0 ?551 562 578 590 0
 0 48 30 591 66 0 562 590 592 0 +-.005 -.1 0 1 0 0 16 562 45 0 ?558 574 556 591
 0 0 48 30 592 90 0 582 591 593 0 +.005 -.1 .002 0 0 -1 16 582 74 0 ?563 579 539
 592 0 0 48 30 593 91 0 579 592 526 0 +-.005 -.1 .002 0 0 -1 16 579 75 0 ?557 53
1 582 593 0 0 48 30 526 92 0 531 593 63 0 +-.005 .1 .002 0 0 -1 17 557 0 560 558
 538 550 553 579 0 561 +15 560 78 0 558 594 0 17 538 0 560 557 540 533 532 539 0
 0 -17 561 0 595 555 596 550 558 562 0 0 -15 595 44 0 596 597 598 17 555 0 595 5
47 561 548 551 556 0 0 -17 596 0 595 561 547 527 588 586 0 0 -17 547 0 595 596 5
55 545 549 578 0 530 -17 588 0 599 575 563 545 596 586 0 0 +15 599 84 0 588 524
 0 17 575 0 599 573 588 559 530 66 0 0 -17 563 0 599 588 573 527 540 582 0 596 +
17 573 0 599 563 575 67 536 574 0 0 -17 540 0 560 538 558 67 563 582 0 573 -16 5
74 4 0 ?536 569 562 584 0 0 48 30 584 5 0 574 600 576 0 +.005 .1 .002 -121430643
3183764e-31 1 0 31 600 142 0 601 602 584 0 +1127570259384924e-32 -.095 0 0 0 1 1
 0 0 .002 16 601 120 0 ?603 589 604 600 0 0 48 31 602 143 0 589 605 600 0 +11275
70259384924e-32 -.095 .002 0 0 1 1 0 0 .002 16 589 123 0 ?606 586 601 602 0 0 48
 31 605 180 0 607 608 602 0 +1127570259384924e-32 .095 0 0 0 1 -1 0 0 .002 16 60
7 158 0 ?609 604 0 605 0 0 48 31 608 181 0 604 0 605 0 +1127570259384924e-32 .09
5 .002 0 0 1 -1 0 0 .002 16 604 161 0 ?610 601 607 608 0 0 48 17 610 0 611 610 6
10 0 612 604 0 0 +15 611 167 0 610 613 614 17 612 0 570 612 612 0 610 604 0 0 -1
5 570 152 0 612 522 0 14 522 155 615 ?597 0 616 61 617 +0 0 597 0 529 81 1 615 5
03 201 522 618 0 0 619 620 14 597 149 619 ?524 522 595 61 621 -0 0 524 522 529 1
5 616 114 0 622 522 535 50 617 2 0 522 623 621 0 +0 0 .002 0 0 1 1 0 0 13 529 29
 0 0 0 0 0 0 65 522 51 623 139 0 624 625 617 0 -1127570259384924e-32 -.095 .002
 0 0 -1 .002 -1 0 0 50 621 65 0 597 617 626 0 +0 0 0 0 0 1 1 0 0 50 626 86 0 594
 621 627 0 +-.005 -.1 .002 0 1 0 0 0 1 14 594 79 628 ?624 580 560 61 626 -0 0 62
4 580 529 50 627 87 0 580 626 525 0 +-.005 .1 .002 1 1214306433183764e-31 0 -121
4306433183764e-31 1 0 14 580 81 629 ?594 577 552 61 627 -0 0 594 577 529 50 525
 88 0 577 627 62 0 +-.005 .1 .002 0 -1 0 0 0 -1 14 577 83 630 ?580 524 566 61 52
5 -0 0 580 524 529 81 1 630 506 201 577 631 0 632 629 633 14 524 85 632 ?577 597
 599 61 62 -0 0 577 597 529 81 1 632 505 201 524 634 0 619 630 635 81 1 634 497
 221 524 0 632 631 636 637 81 1 619 504 201 597 638 0 615 632 639 83 3 635 .7921
56862745098 .819607843137255 .933333333333333 81 1 638 489 221 597 0 619 618 640
 641 83 3 639 .792156862745098 .819607843137255 .933333333333333 81 1 618 487 22
1 522 0 615 0 638 642 81 1 640 491 221 594 0 628 638 643 644 82 1 641 1160577139
 81 1 628 508 201 594 640 0 629 645 646 81 1 643 493 221 580 0 629 640 631 647 8
2 1 644 1147863155 81 1 629 507 201 580 643 0 630 628 648 81 1 631 495 221 577 0
 630 643 634 649 82 1 647 1148125299 82 1 649 1148387443 83 3 648 .7921568627450
98 .819607843137255 .933333333333333 81 1 645 509 201 624 636 0 628 650 651 83 3
 646 .792156862745098 .819607843137255 .933333333333333 14 624 126 645 ?613 594
 652 61 623 +0 0 613 594 529 81 1 636 499 221 624 0 645 634 653 654 81 1 650 510
 201 613 653 0 645 0 655 83 3 651 .792156862745098 .819607843137255 .93333333333
3333 14 613 164 650 ?0 624 611 61 625 +0 0 0 624 529 81 1 653 501 221 613 0 650
 636 0 656 83 3 655 .792156862745098 .819607843137255 .933333333333333 82 1 656
 1157562483 51 625 177 0 613 0 623 0 -1127570259384924e-32 .095 .002 0 0 -1 .002
 -1 0 0 82 1 654 1153499251 15 652 129 0 606 624 657 17 606 0 652 606 606 0 622
 589 0 0 +15 657 130 0 658 624 0 17 658 0 657 658 658 0 603 601 0 0 -17 603 0 59
8 603 603 0 658 601 0 0 +15 598 109 0 603 597 659 15 659 147 0 609 597 0 17 609
 0 659 609 609 0 660 607 0 0 +17 660 0 614 660 660 0 609 607 0 0 -15 614 168 0 6
60 613 0 17 622 0 616 622 622 0 606 589 0 0 -82 1 642 1161101427 82 1 637 114864
9587 83 3 633 .792156862745098 .819607843137255 .933333333333333 83 3 620 .79215
6862745098 .819607843137255 .933333333333333 17 530 0 566 549 564 545 575 66 0 5
88 +19 523 95 0 48 0 65 61 S0 74 20 521 3 0 0 653 650 58 0 0 0 0 0 0 0 0 0 0 0 0
 0 0 0 0 0 84 6 520 pend 381 1 46 511 5 36 0 0 0 0 661 70 47 0 4 T36 0 0 3 20 1
 662 662 13 49 94 0 36 0 663 0 0 664 0 50 50 89 0 665 666 0 0 +.005 .1 .002 -1 -
1214306433183764e-31 0 1214306433183764e-31 -1 0 30 51 93 0 54 667 0 0 +.005 .1
 .002 0 0 -1 29 52 70 0 668 669 0 .005 -.1 0 19 53 28 0 36 664 0 670 V0 16 54 77
 0 ?671 0 672 51 0 0 36 18 55 25 0 673 0 674 675 ?36 17 673 0 676 677 678 55 679
 680 0 681 +18 674 22 0 678 55 682 683 ?36 29 675 27 0 55 683 684 .005 -.1 .002
 29 683 24 0 674 685 675 -.005 -.1 .002 29 684 73 0 686 675 687 .005 .1 0 18 686
 64 0 688 689 0 684 ?36 29 687 72 0 689 684 669 -.005 .1 0 18 689 63 0 690 691 6
86 687 ?36 29 669 71 0 691 687 52 -.005 -.1 0 18 691 62 0 692 668 689 669 ?36 17
 692 0 693 694 695 691 696 697 0 698 +18 668 61 0 699 700 691 52 ?36 17 699 0 70
1 681 698 668 702 703 0 704 +18 700 16 0 705 682 668 706 ?36 17 705 0 707 671 70
8 700 709 710 0 677 -18 682 19 0 709 674 700 685 ?36 29 706 18 0 700 0 685 .005
 .1 .002 29 685 21 0 682 706 683 -.005 .1 .002 17 709 0 676 678 677 682 705 710
 0 708 +15 676 3 0 677 663 711 17 678 0 676 673 709 674 712 713 0 694 +17 677 0
 676 709 673 700 714 715 0 716 +16 710 7 0 ?709 713 715 717 0 0 36 17 708 0 707
 705 690 682 695 672 0 712 -15 707 82 0 690 718 0 17 690 0 707 708 671 689 688 7
19 0 695 +17 695 0 693 692 712 689 708 672 0 696 +16 672 76 0 ?695 54 720 667 0
 0 36 17 712 0 693 695 694 682 678 713 0 0 -15 693 80 0 692 721 0 17 694 0 693 7
12 692 674 698 720 0 679 -16 713 10 0 ?678 680 710 722 0 0 36 16 680 13 0 ?673 7
23 713 724 0 0 36 30 722 11 0 713 717 724 0 +-.005 .1 .002 1214306433183764e-31
 -1 0 30 717 8 0 710 725 722 0 +-.005 .1 .002 -1 0 0 30 724 14 0 680 722 726 0 +
-.005 -.1 .002 1 0 0 30 726 69 0 727 724 728 0 +.005 .1 0 -1214306433183764e-31
 1 0 16 727 57 0 ?729 719 730 726 0 0 36 30 728 68 0 719 726 731 0 +-.005 .1 0 -
1 0 0 16 719 53 0 ?690 697 727 728 0 0 36 30 731 67 0 697 728 732 0 +-.005 .1 0
 1214306433183764e-31 -1 0 16 697 49 0 ?692 703 719 731 0 0 36 30 732 66 0 703 7
31 733 0 +-.005 -.1 0 1 0 0 16 703 45 0 ?699 715 697 732 0 0 36 30 733 90 0 723
 732 734 0 +.005 -.1 .002 0 0 -1 16 723 74 0 ?704 720 680 733 0 0 36 30 734 91 0
 720 733 667 0 +-.005 -.1 .002 0 0 -1 16 720 75 0 ?698 672 723 734 0 0 36 30 667
 92 0 672 734 51 0 +-.005 .1 .002 0 0 -1 17 698 0 701 699 679 691 694 720 0 702
 +15 701 78 0 699 735 0 17 679 0 701 698 681 674 673 680 0 0 -17 702 0 736 696 7
37 691 699 703 0 0 -15 736 44 0 737 738 739 17 696 0 736 688 702 689 692 697 0 0
 -17 737 0 736 702 688 668 729 727 0 0 -17 688 0 736 737 696 686 690 719 0 671 -
17 729 0 740 716 704 686 737 727 0 0 +15 740 84 0 729 665 0 17 716 0 740 714 729
 700 671 54 0 0 -17 704 0 740 729 714 668 681 723 0 737 +17 714 0 740 704 716 55
 677 715 0 0 -17 681 0 701 679 699 55 704 723 0 714 -16 715 4 0 ?677 710 703 725
 0 0 36 30 725 5 0 715 741 717 0 +.005 .1 .002 -1214306433183764e-31 1 0 31 741
 142 0 742 743 725 0 +1127570259384924e-32 -.095 0 0 0 1 1 0 0 .002 16 742 120 0
 ?744 730 745 741 0 0 36 31 743 143 0 730 746 741 0 +1127570259384924e-32 -.095
 .002 0 0 1 1 0 0 .002 16 730 123 0 ?747 727 742 743 0 0 36 31 746 180 0 748 749
 743 0 +1127570259384924e-32 .095 0 0 0 1 -1 0 0 .002 16 748 158 0 ?750 745 0 74
6 0 0 36 31 749 181 0 745 0 746 0 +1127570259384924e-32 .095 .002 0 0 1 -1 0 0 .
002 16 745 161 0 ?751 742 748 749 0 0 36 17 751 0 752 751 751 0 753 745 0 0 +15
 752 167 0 751 754 755 17 753 0 711 753 753 0 751 745 0 0 -15 711 152 0 753 663
 0 14 663 155 756 ?738 0 757 49 758 +0 0 738 0 670 81 1 756 503 201 663 759 0 0
 760 761 14 738 149 760 ?665 663 736 49 762 -0 0 665 663 670 15 757 114 0 763 66
3 676 50 758 2 0 663 764 762 0 +0 0 .002 0 0 1 1 0 0 13 670 29 0 0 0 0 0 0 53 66
3 51 764 139 0 765 766 758 0 -1127570259384924e-32 -.095 .002 0 0 -1 .002 -1 0 0
 50 762 65 0 738 758 767 0 +0 0 0 0 0 1 1 0 0 50 767 86 0 735 762 768 0 +-.005 -
.1 .002 0 1 0 0 0 1 14 735 79 769 ?765 721 701 49 767 -0 0 765 721 670 50 768 87
 0 721 767 666 0 +-.005 .1 .002 1 1214306433183764e-31 0 -1214306433183764e-31 1
 0 14 721 81 770 ?735 718 693 49 768 -0 0 735 718 670 50 666 88 0 718 768 50 0 +
-.005 .1 .002 0 -1 0 0 0 -1 14 718 83 771 ?721 665 707 49 666 -0 0 721 665 670 8
1 1 771 506 201 718 772 0 773 770 774 14 665 85 773 ?718 738 740 49 50 -0 0 718
 738 670 81 1 773 505 201 665 775 0 760 771 776 81 1 775 497 221 665 0 773 772 7
77 778 81 1 760 504 201 738 779 0 756 773 780 83 3 776 .792156862745098 .8196078
43137255 .933333333333333 81 1 779 489 221 738 0 760 759 781 782 83 3 780 .79215
6862745098 .819607843137255 .933333333333333 81 1 759 487 221 663 0 756 0 779 78
3 81 1 781 491 221 735 0 769 779 784 785 82 1 782 1160577139 81 1 769 508 201 73
5 781 0 770 786 787 81 1 784 493 221 721 0 770 781 772 788 82 1 785 1147863155 8
1 1 770 507 201 721 784 0 771 769 789 81 1 772 495 221 718 0 771 784 775 790 82
 1 788 1148125299 82 1 790 1148387443 83 3 789 .792156862745098 .819607843137255
 .933333333333333 81 1 786 509 201 765 777 0 769 791 792 83 3 787 .7921568627450
98 .819607843137255 .933333333333333 14 765 126 786 ?754 735 793 49 764 +0 0 754
 735 670 81 1 777 499 221 765 0 786 775 794 795 81 1 791 510 201 754 794 0 786 0
 796 83 3 792 .792156862745098 .819607843137255 .933333333333333 14 754 164 791
 ?0 765 752 49 766 +0 0 0 765 670 81 1 794 501 221 754 0 791 777 0 797 83 3 796
 .792156862745098 .819607843137255 .933333333333333 82 1 797 1157562483 51 766 1
77 0 754 0 764 0 -1127570259384924e-32 .095 .002 0 0 -1 .002 -1 0 0 82 1 795 115
3499251 15 793 129 0 747 765 798 17 747 0 793 747 747 0 763 730 0 0 +15 798 130
 0 799 765 0 17 799 0 798 799 799 0 744 742 0 0 -17 744 0 739 744 744 0 799 742
 0 0 +15 739 109 0 744 738 800 15 800 147 0 750 738 0 17 750 0 800 750 750 0 801
 748 0 0 +17 801 0 755 801 801 0 750 748 0 0 -15 755 168 0 801 754 0 17 763 0 75
7 763 763 0 747 730 0 0 -82 1 783 1161101427 82 1 778 1148649587 83 3 774 .79215
6862745098 .819607843137255 .933333333333333 83 3 761 .792156862745098 .81960784
3137255 .933333333333333 17 671 0 707 690 705 686 716 54 0 729 +19 664 95 0 36 0
 53 49 S0 74 20 662 3 0 0 794 791 46 0 0 0 0 0 0 0 0 0 0 0 0 0 0 0 0 0 84 6 661
 pend 481 1 34 3937 5 24 802 0 0 0 803 70 35 0 4 T24 0 0 4 20 1 804 804 13 37 94
 0 24 0 805 0 0 806 0 50 38 89 0 807 808 0 0 +.025 .025 .02 -1 -277555756156289e
-30 0 277555756156289e-30 -1 0 30 39 93 0 42 809 0 0 +.025 .025 .02 0 0 -1 29 40
 70 0 810 811 0 .025 -.025 0 19 41 28 0 24 806 0 812 V0 16 42 77 0 ?813 0 814 39
 0 0 24 18 43 25 0 815 0 816 817 ?24 17 815 0 818 819 820 43 821 822 0 823 +18 8
16 22 0 820 43 824 825 ?24 29 817 27 0 43 825 826 .025 -.025 .02 29 825 24 0 816
 827 817 -.025 -.025 .02 29 826 73 0 828 817 829 .025 .025 0 18 828 64 0 830 831
 0 826 ?24 29 829 72 0 831 826 811 -.025 .025 0 18 831 63 0 832 833 828 829 ?24
 29 811 71 0 833 829 40 -.025 -.025 0 18 833 62 0 834 810 831 811 ?24 17 834 0 8
35 836 837 833 838 839 0 840 +18 810 61 0 841 842 833 40 ?24 17 841 0 843 823 84
0 810 844 845 0 846 +18 842 16 0 847 824 810 848 ?24 17 847 0 849 813 850 842 85
1 852 0 819 -18 824 19 0 851 816 842 827 ?24 29 848 18 0 842 0 827 .025 .025 .02
 29 827 21 0 824 848 825 -.025 .025 .02 17 851 0 818 820 819 824 847 852 0 850 +
15 818 3 0 819 805 853 17 820 0 818 815 851 816 854 855 0 836 +17 819 0 818 851
 815 842 856 857 0 858 +16 852 7 0 ?851 855 857 859 0 0 24 17 850 0 849 847 832
 824 837 814 0 854 -15 849 82 0 832 860 0 17 832 0 849 850 813 831 830 861 0 837
 +17 837 0 835 834 854 831 850 814 0 838 +16 814 76 0 ?837 42 862 809 0 0 24 17
 854 0 835 837 836 824 820 855 0 0 -15 835 80 0 834 863 0 17 836 0 835 854 834 8
16 840 862 0 821 -16 855 10 0 ?820 822 852 864 0 0 24 16 822 13 0 ?815 865 855 8
66 0 0 24 30 864 11 0 855 859 866 0 +-.025 .025 .02 277555756156289e-30 -1 0 30
 859 8 0 852 867 864 0 +-.025 .025 .02 -1 0 0 30 866 14 0 822 864 868 0 +-.025 -
.025 .02 1 0 0 30 868 69 0 869 866 870 0 +.025 .025 0 -277555756156289e-30 1 0 1
6 869 57 0 ?871 861 872 868 0 0 24 30 870 68 0 861 868 873 0 +-.025 .025 0 -1 0
 0 16 861 53 0 ?832 839 869 870 0 0 24 30 873 67 0 839 870 874 0 +-.025 .025 0 2
77555756156289e-30 -1 0 16 839 49 0 ?834 845 861 873 0 0 24 30 874 66 0 845 873
 875 0 +-.025 -.025 0 1 0 0 16 845 45 0 ?841 857 839 874 0 0 24 30 875 90 0 865
 874 876 0 +.025 -.025 .02 0 0 -1 16 865 74 0 ?846 862 822 875 0 0 24 30 876 91
 0 862 875 809 0 +-.025 -.025 .02 0 0 -1 16 862 75 0 ?840 814 865 876 0 0 24 30
 809 92 0 814 876 39 0 +-.025 .025 .02 0 0 -1 17 840 0 843 841 821 833 836 862 0
 844 +15 843 78 0 841 877 0 17 821 0 843 840 823 816 815 822 0 0 -17 844 0 878 8
38 879 833 841 845 0 0 -15 878 44 0 879 880 881 17 838 0 878 830 844 831 834 839
 0 0 -17 879 0 878 844 830 810 871 869 0 0 -17 830 0 878 879 838 828 832 861 0 8
13 -17 871 0 882 858 846 828 879 869 0 0 +15 882 84 0 871 807 0 17 858 0 882 856
 871 842 813 42 0 0 -17 846 0 882 871 856 810 823 865 0 879 +17 856 0 882 846 85
8 43 819 857 0 0 -17 823 0 843 821 841 43 846 865 0 856 -16 857 4 0 ?819 852 845
 867 0 0 24 30 867 5 0 857 883 859 0 +.025 .025 .02 -277555756156289e-30 1 0 31
 883 142 0 884 885 867 0 +-1040834085586084e-32 0 0 0 0 1 1 0 0 .002 16 884 120
 0 ?886 872 0 883 0 0 24 31 885 143 0 872 0 883 0 +-1040834085586084e-32 0 .02 0
 0 1 1 0 0 .002 16 872 123 0 ?887 869 884 885 0 0 24 17 887 0 888 887 887 0 889
 872 0 0 +15 888 129 0 887 890 891 17 889 0 853 889 889 0 887 872 0 0 -15 853 11
4 0 889 805 0 14 805 117 892 ?880 0 818 37 893 +0 0 880 0 812 81 1 892 3930 201
 805 894 0 0 895 896 14 880 111 895 ?807 805 878 37 897 -0 0 807 805 812 50 893
 2 0 805 898 897 0 +0 0 .02 0 0 1 1 0 0 13 812 29 0 0 0 0 0 0 41 805 51 898 139
 0 890 0 893 0 --1040834085586084e-32 0 .02 0 0 -1 .002 -1 0 0 50 897 65 0 880 8
93 899 0 +0 0 0 0 0 1 1 0 0 50 899 86 0 877 897 900 0 +-.025 -.025 .02 0 1 0 0 0
 1 14 877 79 901 ?890 863 843 37 899 -0 0 890 863 812 50 900 87 0 863 899 808 0
 +-.025 .025 .02 1 277555756156289e-30 0 -277555756156289e-30 1 0 14 863 81 902
 ?877 860 835 37 900 -0 0 877 860 812 50 808 88 0 860 900 38 0 +-.025 .025 .02 0
 -1 0 0 0 -1 14 860 83 903 ?863 807 849 37 808 -0 0 863 807 812 81 1 903 3933 20
1 860 904 0 905 902 906 14 807 85 905 ?860 880 882 37 38 -0 0 860 880 812 81 1 9
05 3932 201 807 907 0 895 903 908 81 1 907 3926 221 807 0 905 904 909 910 81 1 8
95 3931 201 880 911 0 892 905 912 83 3 908 .792156862745098 .819607843137255 .93
3333333333333 81 1 911 3918 221 880 0 895 894 913 914 83 3 912 .792156862745098
 .819607843137255 .933333333333333 81 1 894 3916 221 805 0 892 0 911 915 81 1 91
3 3920 221 877 0 901 911 916 917 82 1 914 -1505820569 81 1 901 3935 201 877 913
 0 902 918 919 81 1 916 3922 221 863 0 902 913 904 920 82 1 917 -1513160601 81 1
 902 3934 201 863 916 0 903 901 921 81 1 904 3924 221 860 0 903 916 907 922 82 1
 920 -1512898457 82 1 922 -1512636313 83 3 921 .792156862745098 .819607843137255
 .933333333333333 81 1 918 3936 201 890 909 0 901 0 923 83 3 919 .79215686274509
8 .819607843137255 .933333333333333 14 890 126 918 ?0 877 888 37 898 +0 0 0 877
 812 81 1 909 3928 221 890 0 918 907 0 924 83 3 923 .792156862745098 .8196078431
37255 .933333333333333 82 1 924 -1507524505 82 1 915 -1505296281 82 1 910 -15123
74169 83 3 906 .792156862745098 .819607843137255 .933333333333333 83 3 896 .7921
56862745098 .819607843137255 .933333333333333 15 891 130 0 925 890 0 17 925 0 89
1 925 925 0 886 884 0 0 -17 886 0 881 886 886 0 925 884 0 0 +15 881 109 0 886 88
0 0 17 813 0 849 832 847 828 858 42 0 871 +19 806 95 0 24 0 41 37 S0 74 20 804 4
 0 0 909 802 918 34 0 0 0 0 0 0 0 0 0 0 0 0 0 0 0 0 81 2 802 181 375 24 0 34 0 0
 926 0 83 1 926 1e3 84 5 803 mass281 1 22 3937 5 12 927 0 0 0 928 70 23 0 4 T12
 0 0 4 20 1 929 929 13 25 94 0 12 0 930 0 0 931 0 50 26 89 0 932 933 0 0 +.025 .
025 .02 -1 -277555756156289e-30 0 277555756156289e-30 -1 0 30 27 93 0 30 934 0 0
 +.025 .025 .02 0 0 -1 29 28 70 0 935 936 0 .025 -.025 0 19 29 28 0 12 931 0 937
 V0 16 30 77 0 ?938 0 939 27 0 0 12 18 31 25 0 940 0 941 942 ?12 17 940 0 943 94
4 945 31 946 947 0 948 +18 941 22 0 945 31 949 950 ?12 29 942 27 0 31 950 951 .0
25 -.025 .02 29 950 24 0 941 952 942 -.025 -.025 .02 29 951 73 0 953 942 954 .02
5 .025 0 18 953 64 0 955 956 0 951 ?12 29 954 72 0 956 951 936 -.025 .025 0 18 9
56 63 0 957 958 953 954 ?12 29 936 71 0 958 954 28 -.025 -.025 0 18 958 62 0 959
 935 956 936 ?12 17 959 0 960 961 962 958 963 964 0 965 +18 935 61 0 966 967 958
 28 ?12 17 966 0 968 948 965 935 969 970 0 971 +18 967 16 0 972 949 935 973 ?12
 17 972 0 974 938 975 967 976 977 0 944 -18 949 19 0 976 941 967 952 ?12 29 973
 18 0 967 0 952 .025 .025 .02 29 952 21 0 949 973 950 -.025 .025 .02 17 976 0 94
3 945 944 949 972 977 0 975 +15 943 3 0 944 930 978 17 945 0 943 940 976 941 979
 980 0 961 +17 944 0 943 976 940 967 981 982 0 983 +16 977 7 0 ?976 980 982 984
 0 0 12 17 975 0 974 972 957 949 962 939 0 979 -15 974 82 0 957 985 0 17 957 0 9
74 975 938 956 955 986 0 962 +17 962 0 960 959 979 956 975 939 0 963 +16 939 76
 0 ?962 30 987 934 0 0 12 17 979 0 960 962 961 949 945 980 0 0 -15 960 80 0 959
 988 0 17 961 0 960 979 959 941 965 987 0 946 -16 980 10 0 ?945 947 977 989 0 0
 12 16 947 13 0 ?940 990 980 991 0 0 12 30 989 11 0 980 984 991 0 +-.025 .025 .0
2 277555756156289e-30 -1 0 30 984 8 0 977 992 989 0 +-.025 .025 .02 -1 0 0 30 99
1 14 0 947 989 993 0 +-.025 -.025 .02 1 0 0 30 993 69 0 994 991 995 0 +.025 .025
 0 -277555756156289e-30 1 0 16 994 57 0 ?996 986 997 993 0 0 12 30 995 68 0 986
 993 998 0 +-.025 .025 0 -1 0 0 16 986 53 0 ?957 964 994 995 0 0 12 30 998 67 0
 964 995 999 0 +-.025 .025 0 277555756156289e-30 -1 0 16 964 49 0 ?959 970 986 9
98 0 0 12 30 999 66 0 970 998 1000 0 +-.025 -.025 0 1 0 0 16 970 45 0 ?966 982 9
64 999 0 0 12 30 1000 90 0 990 999 1001 0 +.025 -.025 .02 0 0 -1 16 990 74 0 ?97
1 987 947 1000 0 0 12 30 1001 91 0 987 1000 934 0 +-.025 -.025 .02 0 0 -1 16 987
 75 0 ?965 939 990 1001 0 0 12 30 934 92 0 939 1001 27 0 +-.025 .025 .02 0 0 -1
 17 965 0 968 966 946 958 961 987 0 969 +15 968 78 0 966 1002 0 17 946 0 968 965
 948 941 940 947 0 0 -17 969 0 1003 963 1004 958 966 970 0 0 -15 1003 44 0 1004
 1005 1006 17 963 0 1003 955 969 956 959 964 0 0 -17 1004 0 1003 969 955 935 996
 994 0 0 -17 955 0 1003 1004 963 953 957 986 0 938 -17 996 0 1007 983 971 953 10
04 994 0 0 +15 1007 84 0 996 932 0 17 983 0 1007 981 996 967 938 30 0 0 -17 971
 0 1007 996 981 935 948 990 0 1004 +17 981 0 1007 971 983 31 944 982 0 0 -17 948
 0 968 946 966 31 971 990 0 981 -16 982 4 0 ?944 977 970 992 0 0 12 30 992 5 0 9
82 1008 984 0 +.025 .025 .02 -277555756156289e-30 1 0 31 1008 142 0 1009 1010 99
2 0 +-1040834085586084e-32 0 0 0 0 1 1 0 0 .002 16 1009 120 0 ?1011 997 0 1008 0
 0 12 31 1010 143 0 997 0 1008 0 +-1040834085586084e-32 0 .02 0 0 1 1 0 0 .002 1
6 997 123 0 ?1012 994 1009 1010 0 0 12 17 1012 0 1013 1012 1012 0 1014 997 0 0 +
15 1013 129 0 1012 1015 1016 17 1014 0 978 1014 1014 0 1012 997 0 0 -15 978 114
 0 1014 930 0 14 930 117 1017 ?1005 0 943 25 1018 +0 0 1005 0 937 81 1 1017 3930
 201 930 1019 0 0 1020 1021 14 1005 111 1020 ?932 930 1003 25 1022 -0 0 932 930
 937 50 1018 2 0 930 1023 1022 0 +0 0 .02 0 0 1 1 0 0 13 937 29 0 0 0 0 0 0 29 9
30 51 1023 139 0 1015 0 1018 0 --1040834085586084e-32 0 .02 0 0 -1 .002 -1 0 0 5
0 1022 65 0 1005 1018 1024 0 +0 0 0 0 0 1 1 0 0 50 1024 86 0 1002 1022 1025 0 +-
.025 -.025 .02 0 1 0 0 0 1 14 1002 79 1026 ?1015 988 968 25 1024 -0 0 1015 988 9
37 50 1025 87 0 988 1024 933 0 +-.025 .025 .02 1 277555756156289e-30 0 -27755575
6156289e-30 1 0 14 988 81 1027 ?1002 985 960 25 1025 -0 0 1002 985 937 50 933 88
 0 985 1025 26 0 +-.025 .025 .02 0 -1 0 0 0 -1 14 985 83 1028 ?988 932 974 25 93
3 -0 0 988 932 937 81 1 1028 3933 201 985 1029 0 1030 1027 1031 14 932 85 1030 ?
985 1005 1007 25 26 -0 0 985 1005 937 81 1 1030 3932 201 932 1032 0 1020 1028 10
33 81 1 1032 3926 221 932 0 1030 1029 1034 1035 81 1 1020 3931 201 1005 1036 0 1
017 1030 1037 83 3 1033 .792156862745098 .819607843137255 .933333333333333 81 1
 1036 3918 221 1005 0 1020 1019 1038 1039 83 3 1037 .792156862745098 .8196078431
37255 .933333333333333 81 1 1019 3916 221 930 0 1017 0 1036 1040 81 1 1038 3920
 221 1002 0 1026 1036 1041 1042 82 1 1039 -1505820569 81 1 1026 3935 201 1002 10
38 0 1027 1043 1044 81 1 1041 3922 221 988 0 1027 1038 1029 1045 82 1 1042 -1513
160601 81 1 1027 3934 201 988 1041 0 1028 1026 1046 81 1 1029 3924 221 985 0 102
8 1041 1032 1047 82 1 1045 -1512898457 82 1 1047 -1512636313 83 3 1046 .79215686
2745098 .819607843137255 .933333333333333 81 1 1043 3936 201 1015 1034 0 1026 0
 1048 83 3 1044 .792156862745098 .819607843137255 .933333333333333 14 1015 126 1
043 ?0 1002 1013 25 1023 +0 0 0 1002 937 81 1 1034 3928 221 1015 0 1043 1032 0 1
049 83 3 1048 .792156862745098 .819607843137255 .933333333333333 82 1 1049 -1507
524505 82 1 1040 -1505296281 82 1 1035 -1512374169 83 3 1031 .792156862745098 .8
19607843137255 .933333333333333 83 3 1021 .792156862745098 .819607843137255 .933
333333333333 15 1016 130 0 1050 1015 0 17 1050 0 1016 1050 1050 0 1011 1009 0 0
 -17 1011 0 1006 1011 1011 0 1050 1009 0 0 +15 1006 109 0 1011 1005 0 17 938 0 9
74 957 972 953 983 30 0 996 +19 931 95 0 12 0 29 25 S0 74 20 929 4 0 0 1034 927
 1043 22 0 0 0 0 0 0 0 0 0 0 0 0 0 0 0 0 81 2 927 181 375 12 0 22 0 0 1051 0 83
 1 1051 1e3 84 5 928 mass381 1 10 158 5 7 0 0 0 0 1052 70 11 0 4 T7 0 0 3 20 1 1
053 1053 13 13 94 0 7 0 1054 0 0 1055 0 50 14 89 0 1054 1056 0 0 +2.5 1.5 .002 -
1 -1480297366166874e-31 0 1480297366166874e-31 -1 0 30 15 93 0 18 1057 0 0 +2.5
 1.5 .002 0 0 -1 29 16 70 0 1058 1059 0 2.5 -1.5 0 19 17 28 0 7 1055 0 1060 V0 1
6 18 77 0 ?1061 0 1062 15 0 0 7 18 19 25 0 1063 0 1064 1065 ?7 17 1063 0 1066 10
67 1068 19 1069 1070 0 1071 +18 1064 22 0 1068 19 1072 1073 ?7 29 1065 27 0 19 1
073 1074 2.5 -1.5 .002 29 1073 24 0 1064 1075 1065 -2.5 -1.5 .002 29 1074 73 0 1
076 1065 1077 2.5 1.5 0 18 1076 64 0 1078 1079 0 1074 ?7 29 1077 72 0 1079 1074
 1059 -2.5 1.5 0 18 1079 63 0 1080 1081 1076 1077 ?7 29 1059 71 0 1081 1077 16 -
2.5 -1.5 0 18 1081 62 0 1082 1058 1079 1059 ?7 17 1082 0 1083 1084 1085 1081 108
6 1087 0 1088 +18 1058 61 0 1089 1090 1081 16 ?7 17 1089 0 1091 1071 1088 1058 1
092 1093 0 1094 +18 1090 16 0 1095 1072 1058 1096 ?7 17 1095 0 1097 1061 1098 10
90 1099 1100 0 1067 -18 1072 19 0 1099 1064 1090 1075 ?7 29 1096 18 0 1090 0 107
5 2.5 1.5 .002 29 1075 21 0 1072 1096 1073 -2.5 1.5 .002 17 1099 0 1066 1068 106
7 1072 1095 1100 0 1098 +15 1066 3 0 1067 1101 0 17 1068 0 1066 1063 1099 1064 1
102 1103 0 1084 +17 1067 0 1066 1099 1063 1090 1104 1105 0 1106 +16 1100 7 0 ?10
99 1103 1105 1107 0 0 7 17 1098 0 1097 1095 1080 1072 1085 1062 0 1102 -15 1097
 82 0 1080 1108 0 17 1080 0 1097 1098 1061 1079 1078 1109 0 1085 +17 1085 0 1083
 1082 1102 1079 1098 1062 0 1086 +16 1062 76 0 ?1085 18 1110 1057 0 0 7 17 1102
 0 1083 1085 1084 1072 1068 1103 0 0 -15 1083 80 0 1082 1111 0 17 1084 0 1083 11
02 1082 1064 1088 1110 0 1069 -16 1103 10 0 ?1068 1070 1100 1112 0 0 7 16 1070 1
3 0 ?1063 1113 1103 1114 0 0 7 30 1112 11 0 1103 1107 1114 0 +-2.5 1.5 .002 1480
297366166874e-31 -1 0 30 1107 8 0 1100 1115 1112 0 +-2.5 1.5 .002 -1 0 0 30 1114
 14 0 1070 1112 1116 0 +-2.5 -1.5 .002 1 0 0 30 1116 69 0 1117 1114 1118 0 +2.5
 1.5 0 -1480297366166874e-31 1 0 16 1117 57 0 ?1119 1109 0 1116 0 0 7 30 1118 68
 0 1109 1116 1120 0 +-2.5 1.5 0 -1 0 0 16 1109 53 0 ?1080 1087 1117 1118 0 0 7 3
0 1120 67 0 1087 1118 1121 0 +-2.5 1.5 0 1480297366166874e-31 -1 0 16 1087 49 0
 ?1082 1093 1109 1120 0 0 7 30 1121 66 0 1093 1120 1122 0 +-2.5 -1.5 0 1 0 0 16
 1093 45 0 ?1089 1105 1087 1121 0 0 7 30 1122 90 0 1113 1121 1123 0 +2.5 -1.5 .0
02 0 0 -1 16 1113 74 0 ?1094 1110 1070 1122 0 0 7 30 1123 91 0 1110 1122 1057 0
 +-2.5 -1.5 .002 0 0 -1 16 1110 75 0 ?1088 1062 1113 1123 0 0 7 30 1057 92 0 106
2 1123 15 0 +-2.5 1.5 .002 0 0 -1 17 1088 0 1091 1089 1069 1081 1084 1110 0 1092
 +15 1091 78 0 1089 1124 0 17 1069 0 1091 1088 1071 1064 1063 1070 0 0 -17 1092
 0 1125 1086 1126 1081 1089 1093 0 0 -15 1125 44 0 1126 1127 0 17 1086 0 1125 10
78 1092 1079 1082 1087 0 0 -17 1126 0 1125 1092 1078 1058 1119 1117 0 0 -17 1078
 0 1125 1126 1086 1076 1080 1109 0 1061 -17 1119 0 1128 1106 1094 1076 1126 1117
 0 0 +15 1128 84 0 1119 1054 0 17 1106 0 1128 1104 1119 1090 1061 18 0 0 -17 109
4 0 1128 1119 1104 1058 1071 1113 0 1126 +17 1104 0 1128 1094 1106 19 1067 1105
 0 0 -17 1071 0 1091 1069 1089 19 1094 1113 0 1104 -16 1105 4 0 ?1067 1100 1093
 1115 0 0 7 30 1115 5 0 1105 0 1107 0 +2.5 1.5 .002 -1480297366166874e-31 1 0 17
 1061 0 1097 1080 1095 1076 1106 18 0 1119 +14 1054 85 1129 ?1108 0 1128 13 14 -
0 0 1108 0 1060 81 1 1129 152 201 1054 1130 0 0 1131 1132 14 1108 83 1131 ?1111
 1054 1097 13 1056 -0 0 1111 1054 1060 13 1060 29 0 0 0 0 0 0 17 1054 81 1 1131
 153 201 1108 1133 0 1129 1134 1135 14 1111 81 1134 ?1124 1108 1083 13 1136 -0 0
 1124 1108 1060 50 1056 88 0 1108 1136 14 0 +-2.5 1.5 .002 0 -1 0 0 0 -1 50 1136
 87 0 1111 1137 1056 0 +-2.5 1.5 .002 1 1480297366166874e-31 0 -1480297366166874
e-31 1 0 50 1137 86 0 1124 1138 1136 0 +-2.5 -1.5 .002 0 1 0 0 0 1 14 1124 79 11
39 ?1101 1111 1091 13 1137 -0 0 1101 1111 1060 50 1138 65 0 1127 1140 1137 0 +0
 0 0 0 0 1 1 0 0 14 1127 43 1141 ?0 1101 1125 13 1138 -0 0 0 1101 1060 50 1140 2
 0 1101 0 1138 0 +0 0 .002 0 0 1 1 0 0 14 1101 1 1142 ?1127 1124 1066 13 1140 +0
 0 1127 1124 1060 81 1 1142 156 201 1101 1143 0 1139 1141 1144 81 1 1143 150 221
 1101 0 1142 1145 0 1146 81 1 1139 155 201 1124 1147 0 1134 1142 1148 81 1 1141
 157 201 1127 1145 0 1142 0 1149 83 3 1144 .792156862745098 .819607843137255 .93
3333333333333 81 1 1145 148 221 1127 0 1141 1147 1143 1150 83 3 1149 .7921568627
45098 .819607843137255 .933333333333333 81 1 1147 146 221 1124 0 1139 1151 1145
 1152 82 1 1150 1031340139 81 1 1151 144 221 1111 0 1134 1133 1147 1153 82 1 115
2 1032257643 81 1 1134 154 201 1111 1151 0 1131 1139 1154 81 1 1133 142 221 1108
 0 1131 1130 1151 1155 82 1 1153 1032519787 81 1 1130 140 221 1054 0 1129 0 1133
 1156 82 1 1155 1032781931 82 1 1156 1033044075 83 3 1154 .792156862745098 .8196
07843137255 .933333333333333 83 3 1148 .792156862745098 .819607843137255 .933333
333333333 82 1 1146 1025704043 83 3 1135 .792156862745098 .819607843137255 .9333
33333333333 83 3 1132 .792156862745098 .819607843137255 .933333333333333 19 1055
 95 0 7 0 17 13 S0 74 20 1053 3 0 0 1143 1141 10 0 0 0 0 0 0 0 0 0 0 0 0 0 0 0 0
 0 84 8 1052 platform74 20 6 1 0 0 2 0 0 0 0 0 0 0 0 0 0 0 0 0 0 0 0 0 0 0 1 0 
