**ABCDEFGHIJKLMNOPQRSTUVWXYZabcdefghijklmnopqrstuvwxyz**************************
**PARASOLID !"#$%&'()*+,-./:;<=>?@[\]^_`{|}~0123456789**************************
**PART1;
MC=AMD64;
MC_MODEL=Intel64 Family 6 Model 142 Stepping 10, GenuineIntel;
MC_ID=unknown;
OS=Windows_NT;
OS_RELEASE=unknown;
FRU=Parasolid Version 30.0, build 310,  6- 8-2018;
APPL=SOLIDWORKS 2018-2018211;
SITE=;
USER=unknown;
FORMAT=text;
GUISE=transmit;
KEY=link_updated;
FILE=link_updated.x_t;
DATE=Mon Sep 14 15:45:52 2020;
**PART2;
SCH=SCH_3000310_30000;
USFLD_SIZE=0;
**PART3;
**END_OF_HEADER*****************************************************************
T51 : TRANSMIT FILE created by modeller version 300031023 SCH_3000310_30000_1300
6205 0 10 19 CCCCCCCI4 mesh1006 0 I8 polyline1008 0 CCCCCCCCCCZ1 17 2 3 0 0 0 0
 0 0 0 1e3 1e-8 0 0 0 1 0 1 4 81 255 1 2 17 5 1 0 0 0 0 0 70 11 CI9 list_type0 0
 1 uI10 notransmit0 0 1 lCCCDCCDI12 finger_index0 0 1 dI12 finger_block1012 0 CZ
3 0 4 T1 0 0 1 20 1 6 6 11 255 4 15 0 1 7 8 1 9 0 0 0 12 33 CCCCCCI4 mesh1006 0
 I8 polyline1008 0 CCCCCCCDI5 owner1040 0 CCCCCCI13 boundary_mesh1006 0 I17 boun
dary_polyline1008 0 CCCA16 index_map_offset0 0 1 dA9 index_map82 0 A17 node_id_i
ndex_map82 0 A20 schema_embedding_map82 0 A5 child12 0 A14 lowest_node_id0 0 1 d
Z7 159 10 11 0 0 0 0 0 0 1e3 1e-8 4 12 0 1 0 1 1 13 14 15 16 0 0 17 18 19 0 0 0
 0 0 0 100 255 8 16 4 0 0 .402741403076902 -.915313805340905 625632314369538e-30
 4062387316023555e-31 -504770227351422e-30 -1 .915313805340905 .402741403076902
 168544049704856e-30 1.772630672745875 .2390908706738215 .470016833873875 1 3 ?1
1 9 13 0 1 12 20 1 21 4 0 0 12 12 3937 22 23 0 0 0 0 0 0 1e3 1e-8 9 24 7 1 0 1 1
 25 26 27 28 0 0 29 30 31 0 0 0 0 0 0 100 20 14 9 0 0 .933814856568548 -.3577566
402624295 0 .3577566402624295 .933814856568548 0 0 0 1 .229397203947099 .4312396
269167185 .0630120611082994 1 3 ?11 21 11 0 1 24 32 1 33 9 0 0 12 24 3937 34 35
 0 0 0 0 0 0 1e3 1e-8 21 36 12 1 0 1 1 37 38 39 40 0 0 41 42 43 0 0 0 0 0 0 100
 32 12 21 0 0 .981858017179776 .1896175996573065 0 -.1896175996573065 .981858017
179776 0 0 0 1 .1614234422972375 .608664449664743 .0850120611082994 1 3 ?11 33 9
 0 1 36 44 1 45 21 0 0 12 36 512 46 47 0 0 0 0 0 0 1e3 1e-8 33 48 24 1 0 1 1 49
 50 51 52 0 0 53 54 55 0 0 0 0 0 0 100 44 10 33 0 0 .980315775157797 .1974360174
25312 0 -.197436017425312 .980315775157797 0 0 0 1 .2106407822916945 .3381096282
76728 .0610120611082994 1 3 ?11 45 7 0 1 48 56 1 57 33 0 0 12 48 512 58 59 0 0 0
 0 0 0 1e3 1e-8 45 60 36 1 0 1 1 61 62 63 64 0 0 65 66 67 0 0 0 0 0 0 100 56 8 4
5 0 0 .933814856568548 -.3577566402624295 0 .3577566402624295 .933814856568548 0
 0 0 1 .195410323122168 .519952038290731 .0830120611082994 1 3 ?11 57 5 0 1 60 6
8 1 69 45 0 0 12 60 513 70 71 0 0 0 0 0 0 1e3 1e-8 57 72 48 1 0 1 1 73 74 75 76
 0 0 77 78 79 0 0 0 0 0 0 100 68 6 57 0 0 .981858017179776 .1896175996573065 0 -
.1896175996573065 .981858017179776 0 0 0 1 .1434097703297934 .515387938032664 .1
050120611082994 1 3 ?11 69 3 0 1 72 80 1 81 57 0 0 12 72 3937 82 83 0 0 0 0 0 0
 1e3 1e-8 69 84 60 1 0 1 1 85 86 87 88 0 0 89 90 91 0 0 0 0 0 0 100 80 4 69 0 0
 .369871104911297 -.929083077960037 0 .929083077960037 .369871104911297 0 0 0 1
 .1253960983623492 .422111426400585 .1070120611082994 1 3 ?11 81 1 0 1 84 92 1 0
 69 0 0 12 84 3300 93 94 0 0 0 0 0 0 1e3 1e-8 81 95 72 1 0 1 1 96 97 98 99 0 0 1
00 101 102 0 0 0 0 0 0 100 92 2 81 0 0 .929083077960037 .369871104911297 0 -.369
871104911297 .929083077960037 0 0 0 1 .0902583433957761 .3338485339943815 .12701
20611082994 1 3 ?81 1 93 3300 5 84 103 0 0 0 104 70 94 0 4 T84 0 0 4 20 1 105 10
5 13 255 96 94 0 84 0 106 0 0 107 0 50 255 97 89 0 108 109 0 0 +.005 .1 .002 -1
 -1214306433183764e-31 0 1214306433183764e-31 -1 0 30 255 98 93 0 101 110 0 0 +.
005 .1 .002 0 0 -1 29 255 99 70 0 111 112 0 .005 -.1 0 19 8 CCCCCCCA5 owner12 0
 Z100 28 0 84 107 0 113 V0 16 255 101 77 0 ?114 0 115 98 0 0 84 18 255 102 25 0
 116 0 117 118 ?84 17 255 116 0 119 120 121 102 122 123 0 124 +18 117 22 0 121 1
02 125 126 ?84 29 118 27 0 102 126 127 .005 -.1 .002 29 126 24 0 117 128 118 -.0
05 -.1 .002 29 127 73 0 129 118 130 .005 .1 0 18 129 64 0 131 132 0 127 ?84 29 1
30 72 0 132 127 112 -.005 .1 0 18 132 63 0 133 134 129 130 ?84 29 112 71 0 134 1
30 99 -.005 -.1 0 18 134 62 0 135 111 132 112 ?84 17 135 0 136 137 138 134 139 1
40 0 141 +18 111 61 0 142 143 134 99 ?84 17 142 0 144 124 141 111 145 146 0 147
 +18 143 16 0 148 125 111 149 ?84 17 148 0 150 114 151 143 152 153 0 120 -18 125
 19 0 152 117 143 128 ?84 29 149 18 0 143 0 128 .005 .1 .002 29 128 21 0 125 149
 126 -.005 .1 .002 17 152 0 119 121 120 125 148 153 0 151 +15 255 119 3 0 120 10
6 154 17 121 0 119 116 152 117 155 156 0 137 +17 120 0 119 152 116 143 157 158 0
 159 +16 153 7 0 ?152 156 158 160 0 0 84 17 151 0 150 148 133 125 138 115 0 155
 -15 150 82 0 133 161 0 17 133 0 150 151 114 132 131 162 0 138 +17 138 0 136 135
 155 132 151 115 0 139 +16 115 76 0 ?138 101 163 110 0 0 84 17 155 0 136 138 137
 125 121 156 0 0 -15 136 80 0 135 164 0 17 137 0 136 155 135 117 141 163 0 122 -
16 156 10 0 ?121 123 153 165 0 0 84 16 123 13 0 ?116 166 156 167 0 0 84 30 165 1
1 0 156 160 167 0 +-.005 .1 .002 1214306433183764e-31 -1 0 30 160 8 0 153 168 16
5 0 +-.005 .1 .002 -1 0 0 30 167 14 0 123 165 169 0 +-.005 -.1 .002 1 0 0 30 169
 69 0 170 167 171 0 +.005 .1 0 -1214306433183764e-31 1 0 16 170 57 0 ?172 162 17
3 169 0 0 84 30 171 68 0 162 169 174 0 +-.005 .1 0 -1 0 0 16 162 53 0 ?133 140 1
70 171 0 0 84 30 174 67 0 140 171 175 0 +-.005 .1 0 1214306433183764e-31 -1 0 16
 140 49 0 ?135 146 162 174 0 0 84 30 175 66 0 146 174 176 0 +-.005 -.1 0 1 0 0 1
6 146 45 0 ?142 158 140 175 0 0 84 30 176 90 0 166 175 177 0 +.005 -.1 .002 0 0
 -1 16 166 74 0 ?147 163 123 176 0 0 84 30 177 91 0 163 176 110 0 +-.005 -.1 .00
2 0 0 -1 16 163 75 0 ?141 115 166 177 0 0 84 30 110 92 0 115 177 98 0 +-.005 .1
 .002 0 0 -1 17 141 0 144 142 122 134 137 163 0 145 +15 144 78 0 142 178 0 17 12
2 0 144 141 124 117 116 123 0 0 -17 145 0 179 139 180 134 142 146 0 0 -15 179 44
 0 180 181 182 17 139 0 179 131 145 132 135 140 0 0 -17 180 0 179 145 131 111 17
2 170 0 0 -17 131 0 179 180 139 129 133 162 0 114 -17 172 0 183 159 147 129 180
 170 0 0 +15 183 84 0 172 108 0 17 159 0 183 157 172 143 114 101 0 0 -17 147 0 1
83 172 157 111 124 166 0 180 +17 157 0 183 147 159 102 120 158 0 0 -17 124 0 144
 122 142 102 147 166 0 157 -16 158 4 0 ?120 153 146 168 0 0 84 30 168 5 0 158 18
4 160 0 +.005 .1 .002 -1214306433183764e-31 1 0 31 255 184 142 0 185 186 168 0 +
1127570259384924e-32 -.095 0 0 0 1 1 0 0 .002 16 185 120 0 ?187 173 188 184 0 0
 84 31 186 143 0 173 189 184 0 +1127570259384924e-32 -.095 .002 0 0 1 1 0 0 .002
 16 173 123 0 ?190 170 185 186 0 0 84 31 189 180 0 191 192 186 0 +11275702593849
24e-32 .095 0 0 0 1 -1 0 0 .002 16 191 158 0 ?193 188 0 189 0 0 84 31 192 181 0
 188 0 189 0 +1127570259384924e-32 .095 .002 0 0 1 -1 0 0 .002 16 188 161 0 ?194
 185 191 192 0 0 84 17 194 0 195 194 194 0 196 188 0 0 +15 195 167 0 194 197 198
 17 196 0 154 196 196 0 194 188 0 0 -15 154 152 0 196 106 0 14 255 106 155 199 ?
181 0 200 96 201 +0 0 181 0 113 81 1 199 3292 202 106 203 0 0 204 205 14 181 149
 204 ?108 106 179 96 206 -0 0 108 106 113 15 200 114 0 207 106 119 50 201 2 0 10
6 208 206 0 +0 0 .002 0 0 1 1 0 0 13 113 29 0 0 0 0 0 0 100 106 51 255 208 139 0
 209 210 201 0 -1127570259384924e-32 -.095 .002 0 0 -1 .002 -1 0 0 50 206 65 0 1
81 201 211 0 +0 0 0 0 0 1 1 0 0 50 211 86 0 178 206 212 0 +-.005 -.1 .002 0 1 0
 0 0 1 14 178 79 213 ?209 164 144 96 211 -0 0 209 164 113 50 212 87 0 164 211 10
9 0 +-.005 .1 .002 1 1214306433183764e-31 0 -1214306433183764e-31 1 0 14 164 81
 214 ?178 161 136 96 212 -0 0 178 161 113 50 109 88 0 161 212 97 0 +-.005 .1 .00
2 0 -1 0 0 0 -1 14 161 83 215 ?164 108 150 96 109 -0 0 164 108 113 81 1 215 3295
 202 161 216 0 217 214 218 14 108 85 217 ?161 181 183 96 97 -0 0 161 181 113 81
 1 217 3294 202 108 219 0 204 215 220 80 255 1 202 0 221 8001 0 0 0 0 3 5 0 0 0
 FFFFTFTFFFFFFF2 81 1 219 3286 222 108 0 217 216 223 224 81 1 204 3293 202 181 2
25 0 199 217 226 83 255 3 220 .792156862745098 .819607843137255 .933333333333333
 81 1 225 3278 222 181 0 204 203 227 228 83 3 226 .792156862745098 .819607843137
255 .933333333333333 80 1 222 229 230 9000 1 1 1 1 1 1 1 1 0 FFFFTFTFFFFFFF1 81
 1 203 3276 222 106 0 199 0 225 231 81 1 227 3280 222 178 0 213 225 232 233 82 2
55 1 228 1160577139 81 1 213 3297 202 178 227 0 214 234 235 81 1 232 3282 222 16
4 0 214 227 216 236 82 1 233 1147863155 81 1 214 3296 202 164 232 0 215 213 237
 81 1 216 3284 222 161 0 215 232 219 238 82 1 236 1148125299 82 1 238 1148387443
 83 3 237 .792156862745098 .819607843137255 .933333333333333 81 1 234 3298 202 2
09 223 0 213 239 240 83 3 235 .792156862745098 .819607843137255 .933333333333333
 14 209 126 234 ?197 178 241 96 208 +0 0 197 178 113 81 1 223 3288 222 209 0 234
 219 242 243 81 1 239 3299 202 197 242 0 234 0 244 83 3 240 .792156862745098 .81
9607843137255 .933333333333333 14 197 164 239 ?0 209 195 96 210 +0 0 0 209 113 8
1 1 242 3290 222 197 0 239 223 0 245 83 3 244 .792156862745098 .819607843137255
 .933333333333333 82 1 245 1157562483 51 210 177 0 197 0 208 0 -1127570259384924
e-32 .095 .002 0 0 -1 .002 -1 0 0 82 1 243 1153499251 15 241 129 0 190 209 246 1
7 190 0 241 190 190 0 207 173 0 0 +15 246 130 0 247 209 0 17 247 0 246 247 247 0
 187 185 0 0 -17 187 0 182 187 187 0 247 185 0 0 +15 182 109 0 187 181 248 15 24
8 147 0 193 181 0 17 193 0 248 193 193 0 249 191 0 0 +17 249 0 198 249 249 0 193
 191 0 0 -15 198 168 0 249 197 0 17 207 0 200 207 207 0 190 173 0 0 -82 1 231 11
61101427 79 255 14 230 SWEntUnchanged82 1 224 1148649587 79 15 221 SDL/TYSA_COLO
UR83 3 218 .792156862745098 .819607843137255 .933333333333333 83 3 205 .79215686
2745098 .819607843137255 .933333333333333 17 114 0 150 133 148 129 159 101 0 172
 +19 107 95 0 84 0 100 96 S0 74 4 CI16 index_map_offset0 0 1 dCCZ20 105 4 0 0 24
2 103 239 93 0 0 0 0 0 0 0 0 0 0 0 0 0 0 0 0 81 2 103 887 250 84 0 93 0 0 251 0
 80 2 250 252 253 8004 0 0 0 0 3 5 0 0 0 FFTFFFFFFFFFFF2 3 83 1 251 1e3 79 16 25
3 SDL/TYSA_DENSITY80 1 5 254 255 8017 0 0 0 0 0 0 0 0 0 TTTTTTTTTTTTTF3 84 255 4
 104 pend79 13 255 SDL/TYSA_NAME81 1 82 3937 5 72 256 0 0 0 257 70 83 0 4 T72 0
 0 4 20 1 258 258 13 85 94 0 72 0 259 0 0 260 0 50 86 89 0 261 262 0 0 +.025 .02
5 .02 -1 -277555756156289e-30 0 277555756156289e-30 -1 0 30 87 93 0 90 263 0 0 +
.025 .025 .02 0 0 -1 29 88 70 0 264 265 0 .025 -.025 0 19 89 28 0 72 260 0 266 V
0 16 90 77 0 ?267 0 268 87 0 0 72 18 91 25 0 269 0 270 271 ?72 17 269 0 272 273
 274 91 275 276 0 277 +18 270 22 0 274 91 278 279 ?72 29 271 27 0 91 279 280 .02
5 -.025 .02 29 279 24 0 270 281 271 -.025 -.025 .02 29 280 73 0 282 271 283 .025
 .025 0 18 282 64 0 284 285 0 280 ?72 29 283 72 0 285 280 265 -.025 .025 0 18 28
5 63 0 286 287 282 283 ?72 29 265 71 0 287 283 88 -.025 -.025 0 18 287 62 0 288
 264 285 265 ?72 17 288 0 289 290 291 287 292 293 0 294 +18 264 61 0 295 296 287
 88 ?72 17 295 0 297 277 294 264 298 299 0 300 +18 296 16 0 301 278 264 302 ?72
 17 301 0 303 267 304 296 305 306 0 273 -18 278 19 0 305 270 296 281 ?72 29 302
 18 0 296 0 281 .025 .025 .02 29 281 21 0 278 302 279 -.025 .025 .02 17 305 0 27
2 274 273 278 301 306 0 304 +15 272 3 0 273 259 307 17 274 0 272 269 305 270 308
 309 0 290 +17 273 0 272 305 269 296 310 311 0 312 +16 306 7 0 ?305 309 311 313
 0 0 72 17 304 0 303 301 286 278 291 268 0 308 -15 303 82 0 286 314 0 17 286 0 3
03 304 267 285 284 315 0 291 +17 291 0 289 288 308 285 304 268 0 292 +16 268 76
 0 ?291 90 316 263 0 0 72 17 308 0 289 291 290 278 274 309 0 0 -15 289 80 0 288
 317 0 17 290 0 289 308 288 270 294 316 0 275 -16 309 10 0 ?274 276 306 318 0 0
 72 16 276 13 0 ?269 319 309 320 0 0 72 30 318 11 0 309 313 320 0 +-.025 .025 .0
2 277555756156289e-30 -1 0 30 313 8 0 306 321 318 0 +-.025 .025 .02 -1 0 0 30 32
0 14 0 276 318 322 0 +-.025 -.025 .02 1 0 0 30 322 69 0 323 320 324 0 +.025 .025
 0 -277555756156289e-30 1 0 16 323 57 0 ?325 315 326 322 0 0 72 30 324 68 0 315
 322 327 0 +-.025 .025 0 -1 0 0 16 315 53 0 ?286 293 323 324 0 0 72 30 327 67 0
 293 324 328 0 +-.025 .025 0 277555756156289e-30 -1 0 16 293 49 0 ?288 299 315 3
27 0 0 72 30 328 66 0 299 327 329 0 +-.025 -.025 0 1 0 0 16 299 45 0 ?295 311 29
3 328 0 0 72 30 329 90 0 319 328 330 0 +.025 -.025 .02 0 0 -1 16 319 74 0 ?300 3
16 276 329 0 0 72 30 330 91 0 316 329 263 0 +-.025 -.025 .02 0 0 -1 16 316 75 0
 ?294 268 319 330 0 0 72 30 263 92 0 268 330 87 0 +-.025 .025 .02 0 0 -1 17 294
 0 297 295 275 287 290 316 0 298 +15 297 78 0 295 331 0 17 275 0 297 294 277 270
 269 276 0 0 -17 298 0 332 292 333 287 295 299 0 0 -15 332 44 0 333 334 335 17 2
92 0 332 284 298 285 288 293 0 0 -17 333 0 332 298 284 264 325 323 0 0 -17 284 0
 332 333 292 282 286 315 0 267 -17 325 0 336 312 300 282 333 323 0 0 +15 336 84
 0 325 261 0 17 312 0 336 310 325 296 267 90 0 0 -17 300 0 336 325 310 264 277 3
19 0 333 +17 310 0 336 300 312 91 273 311 0 0 -17 277 0 297 275 295 91 300 319 0
 310 -16 311 4 0 ?273 306 299 321 0 0 72 30 321 5 0 311 337 313 0 +.025 .025 .02
 -277555756156289e-30 1 0 31 337 142 0 338 339 321 0 +-1040834085586084e-32 0 0
 0 0 1 1 0 0 .002 16 338 120 0 ?340 326 0 337 0 0 72 31 339 143 0 326 0 337 0 +-
1040834085586084e-32 0 .02 0 0 1 1 0 0 .002 16 326 123 0 ?341 323 338 339 0 0 72
 17 341 0 342 341 341 0 343 326 0 0 +15 342 129 0 341 344 345 17 343 0 307 343 3
43 0 341 326 0 0 -15 307 114 0 343 259 0 14 259 117 346 ?334 0 272 85 347 +0 0 3
34 0 266 81 1 346 3930 202 259 348 0 0 349 350 14 334 111 349 ?261 259 332 85 35
1 -0 0 261 259 266 50 347 2 0 259 352 351 0 +0 0 .02 0 0 1 1 0 0 13 266 29 0 0 0
 0 0 0 89 259 51 352 139 0 344 0 347 0 --1040834085586084e-32 0 .02 0 0 -1 .002
 -1 0 0 50 351 65 0 334 347 353 0 +0 0 0 0 0 1 1 0 0 50 353 86 0 331 351 354 0 +
-.025 -.025 .02 0 1 0 0 0 1 14 331 79 355 ?344 317 297 85 353 -0 0 344 317 266 5
0 354 87 0 317 353 262 0 +-.025 .025 .02 1 277555756156289e-30 0 -27755575615628
9e-30 1 0 14 317 81 356 ?331 314 289 85 354 -0 0 331 314 266 50 262 88 0 314 354
 86 0 +-.025 .025 .02 0 -1 0 0 0 -1 14 314 83 357 ?317 261 303 85 262 -0 0 317 2
61 266 81 1 357 3933 202 314 358 0 359 356 360 14 261 85 359 ?314 334 336 85 86
 -0 0 314 334 266 81 1 359 3932 202 261 361 0 349 357 362 81 1 361 3926 222 261
 0 359 358 363 364 81 1 349 3931 202 334 365 0 346 359 366 83 3 362 .79215686274
5098 .819607843137255 .933333333333333 81 1 365 3918 222 334 0 349 348 367 368 8
3 3 366 .792156862745098 .819607843137255 .933333333333333 81 1 348 3916 222 259
 0 346 0 365 369 81 1 367 3920 222 331 0 355 365 370 371 82 1 368 -1505820569 81
 1 355 3935 202 331 367 0 356 372 373 81 1 370 3922 222 317 0 356 367 358 374 82
 1 371 -1513160601 81 1 356 3934 202 317 370 0 357 355 375 81 1 358 3924 222 314
 0 357 370 361 376 82 1 374 -1512898457 82 1 376 -1512636313 83 3 375 .792156862
745098 .819607843137255 .933333333333333 81 1 372 3936 202 344 363 0 355 0 377 8
3 3 373 .792156862745098 .819607843137255 .933333333333333 14 344 126 372 ?0 331
 342 85 352 +0 0 0 331 266 81 1 363 3928 222 344 0 372 361 0 378 83 3 377 .79215
6862745098 .819607843137255 .933333333333333 82 1 378 -1507524505 82 1 369 -1505
296281 82 1 364 -1512374169 83 3 360 .792156862745098 .819607843137255 .93333333
3333333 83 3 350 .792156862745098 .819607843137255 .933333333333333 15 345 130 0
 379 344 0 17 379 0 345 379 379 0 340 338 0 0 -17 340 0 335 340 340 0 379 338 0
 0 +15 335 109 0 340 334 0 17 267 0 303 286 301 282 312 90 0 325 +19 260 95 0 72
 0 89 85 S0 74 20 258 4 0 0 363 256 372 82 0 0 0 0 0 0 0 0 0 0 0 0 0 0 0 0 81 2
 256 181 250 72 0 82 0 0 380 0 83 1 380 1e3 84 4 257 mass81 1 70 513 5 60 381 0
 0 0 382 70 71 0 4 T60 0 0 4 20 1 383 383 13 73 94 0 60 0 384 0 0 385 0 50 74 89
 0 386 387 0 0 +.005 .1 .002 -1 -1214306433183764e-31 0 1214306433183764e-31 -1
 0 30 75 93 0 78 388 0 0 +.005 .1 .002 0 0 -1 29 76 70 0 389 390 0 .005 -.1 0 19
 77 28 0 60 385 0 391 V0 16 78 77 0 ?392 0 393 75 0 0 60 18 79 25 0 394 0 395 39
6 ?60 17 394 0 397 398 399 79 400 401 0 402 +18 395 22 0 399 79 403 404 ?60 29 3
96 27 0 79 404 405 .005 -.1 .002 29 404 24 0 395 406 396 -.005 -.1 .002 29 405 7
3 0 407 396 408 .005 .1 0 18 407 64 0 409 410 0 405 ?60 29 408 72 0 410 405 390
 -.005 .1 0 18 410 63 0 411 412 407 408 ?60 29 390 71 0 412 408 76 -.005 -.1 0 1
8 412 62 0 413 389 410 390 ?60 17 413 0 414 415 416 412 417 418 0 419 +18 389 61
 0 420 421 412 76 ?60 17 420 0 422 402 419 389 423 424 0 425 +18 421 16 0 426 40
3 389 427 ?60 17 426 0 428 392 429 421 430 431 0 398 -18 403 19 0 430 395 421 40
6 ?60 29 427 18 0 421 0 406 .005 .1 .002 29 406 21 0 403 427 404 -.005 .1 .002 1
7 430 0 397 399 398 403 426 431 0 429 +15 397 3 0 398 384 432 17 399 0 397 394 4
30 395 433 434 0 415 +17 398 0 397 430 394 421 435 436 0 437 +16 431 7 0 ?430 43
4 436 438 0 0 60 17 429 0 428 426 411 403 416 393 0 433 -15 428 82 0 411 439 0 1
7 411 0 428 429 392 410 409 440 0 416 +17 416 0 414 413 433 410 429 393 0 417 +1
6 393 76 0 ?416 78 441 388 0 0 60 17 433 0 414 416 415 403 399 434 0 0 -15 414 8
0 0 413 442 0 17 415 0 414 433 413 395 419 441 0 400 -16 434 10 0 ?399 401 431 4
43 0 0 60 16 401 13 0 ?394 444 434 445 0 0 60 30 443 11 0 434 438 445 0 +-.005 .
1 .002 1214306433183764e-31 -1 0 30 438 8 0 431 446 443 0 +-.005 .1 .002 -1 0 0
 30 445 14 0 401 443 447 0 +-.005 -.1 .002 1 0 0 30 447 69 0 448 445 449 0 +.005
 .1 0 -1214306433183764e-31 1 0 16 448 57 0 ?450 440 451 447 0 0 60 30 449 68 0
 440 447 452 0 +-.005 .1 0 -1 0 0 16 440 53 0 ?411 418 448 449 0 0 60 30 452 67
 0 418 449 453 0 +-.005 .1 0 1214306433183764e-31 -1 0 16 418 49 0 ?413 424 440
 452 0 0 60 30 453 66 0 424 452 454 0 +-.005 -.1 0 1 0 0 16 424 45 0 ?420 436 41
8 453 0 0 60 30 454 90 0 444 453 455 0 +.005 -.1 .002 0 0 -1 16 444 74 0 ?425 44
1 401 454 0 0 60 30 455 91 0 441 454 388 0 +-.005 -.1 .002 0 0 -1 16 441 75 0 ?4
19 393 444 455 0 0 60 30 388 92 0 393 455 75 0 +-.005 .1 .002 0 0 -1 17 419 0 42
2 420 400 412 415 441 0 423 +15 422 78 0 420 456 0 17 400 0 422 419 402 395 394
 401 0 0 -17 423 0 457 417 458 412 420 424 0 0 -15 457 44 0 458 459 460 17 417 0
 457 409 423 410 413 418 0 0 -17 458 0 457 423 409 389 450 448 0 0 -17 409 0 457
 458 417 407 411 440 0 392 -17 450 0 461 437 425 407 458 448 0 0 +15 461 84 0 45
0 386 0 17 437 0 461 435 450 421 392 78 0 0 -17 425 0 461 450 435 389 402 444 0
 458 +17 435 0 461 425 437 79 398 436 0 0 -17 402 0 422 400 420 79 425 444 0 435
 -16 436 4 0 ?398 431 424 446 0 0 60 30 446 5 0 436 462 438 0 +.005 .1 .002 -121
4306433183764e-31 1 0 31 462 142 0 463 464 446 0 +1127570259384924e-32 -.095 0 0
 0 1 1 0 0 .002 16 463 120 0 ?465 451 466 462 0 0 60 31 464 143 0 451 467 462 0
 +1127570259384924e-32 -.095 .002 0 0 1 1 0 0 .002 16 451 123 0 ?468 448 463 464
 0 0 60 31 467 180 0 469 470 464 0 +1127570259384924e-32 .095 0 0 0 1 -1 0 0 .00
2 16 469 158 0 ?471 466 0 467 0 0 60 31 470 181 0 466 0 467 0 +1127570259384924e
-32 .095 .002 0 0 1 -1 0 0 .002 16 466 161 0 ?472 463 469 470 0 0 60 17 472 0 47
3 472 472 0 474 466 0 0 +15 473 167 0 472 475 476 17 474 0 432 474 474 0 472 466
 0 0 -15 432 152 0 474 384 0 14 384 155 477 ?459 0 478 73 479 +0 0 459 0 391 81
 1 477 505 202 384 480 0 0 481 482 14 459 149 481 ?386 384 457 73 483 -0 0 386 3
84 391 15 478 114 0 484 384 397 50 479 2 0 384 485 483 0 +0 0 .002 0 0 1 1 0 0 1
3 391 29 0 0 0 0 0 0 77 384 51 485 139 0 486 487 479 0 -1127570259384924e-32 -.0
95 .002 0 0 -1 .002 -1 0 0 50 483 65 0 459 479 488 0 +0 0 0 0 0 1 1 0 0 50 488 8
6 0 456 483 489 0 +-.005 -.1 .002 0 1 0 0 0 1 14 456 79 490 ?486 442 422 73 488
 -0 0 486 442 391 50 489 87 0 442 488 387 0 +-.005 .1 .002 1 1214306433183764e-3
1 0 -1214306433183764e-31 1 0 14 442 81 491 ?456 439 414 73 489 -0 0 456 439 391
 50 387 88 0 439 489 74 0 +-.005 .1 .002 0 -1 0 0 0 -1 14 439 83 492 ?442 386 42
8 73 387 -0 0 442 386 391 81 1 492 508 202 439 493 0 494 491 495 14 386 85 494 ?
439 459 461 73 74 -0 0 439 459 391 81 1 494 507 202 386 496 0 481 492 497 81 1 4
96 499 222 386 0 494 493 498 499 81 1 481 506 202 459 500 0 477 494 501 83 3 497
 .792156862745098 .819607843137255 .933333333333333 81 1 500 491 222 459 0 481 4
80 502 503 83 3 501 .792156862745098 .819607843137255 .933333333333333 81 1 480
 489 222 384 0 477 0 500 504 81 1 502 493 222 456 0 490 500 505 506 82 1 503 116
0577139 81 1 490 510 202 456 502 0 491 507 508 81 1 505 495 222 442 0 491 502 49
3 509 82 1 506 1147863155 81 1 491 509 202 442 505 0 492 490 510 81 1 493 497 22
2 439 0 492 505 496 511 82 1 509 1148125299 82 1 511 1148387443 83 3 510 .792156
862745098 .819607843137255 .933333333333333 81 1 507 511 202 486 498 0 490 512 5
13 83 3 508 .792156862745098 .819607843137255 .933333333333333 14 486 126 507 ?4
75 456 514 73 485 +0 0 475 456 391 81 1 498 501 222 486 0 507 496 515 516 81 1 5
12 512 202 475 515 0 507 0 517 83 3 513 .792156862745098 .819607843137255 .93333
3333333333 14 475 164 512 ?0 486 473 73 487 +0 0 0 486 391 81 1 515 503 222 475
 0 512 498 0 518 83 3 517 .792156862745098 .819607843137255 .933333333333333 82
 1 518 1157562483 51 487 177 0 475 0 485 0 -1127570259384924e-32 .095 .002 0 0 -
1 .002 -1 0 0 82 1 516 1153499251 15 514 129 0 468 486 519 17 468 0 514 468 468
 0 484 451 0 0 +15 519 130 0 520 486 0 17 520 0 519 520 520 0 465 463 0 0 -17 46
5 0 460 465 465 0 520 463 0 0 +15 460 109 0 465 459 521 15 521 147 0 471 459 0 1
7 471 0 521 471 471 0 522 469 0 0 +17 522 0 476 522 522 0 471 469 0 0 -15 476 16
8 0 522 475 0 17 484 0 478 484 484 0 468 451 0 0 -82 1 504 1161101427 82 1 499 1
148649587 83 3 495 .792156862745098 .819607843137255 .933333333333333 83 3 482 .
792156862745098 .819607843137255 .933333333333333 17 392 0 428 411 426 407 437 7
8 0 450 +19 385 95 0 60 0 77 73 S0 74 20 383 4 0 0 515 381 512 70 0 0 0 0 0 0 0
 0 0 0 0 0 0 0 0 0 81 2 381 487 250 60 0 70 0 0 523 0 83 1 523 1e3 84 5 382 pend
181 1 58 512 5 48 524 0 0 0 525 70 59 0 4 T48 0 0 4 20 1 526 526 13 61 94 0 48 0
 527 0 0 528 0 50 62 89 0 529 530 0 0 +.005 .1 .002 -1 -1214306433183764e-31 0 1
214306433183764e-31 -1 0 30 63 93 0 66 531 0 0 +.005 .1 .002 0 0 -1 29 64 70 0 5
32 533 0 .005 -.1 0 19 65 28 0 48 528 0 534 V0 16 66 77 0 ?535 0 536 63 0 0 48 1
8 67 25 0 537 0 538 539 ?48 17 537 0 540 541 542 67 543 544 0 545 +18 538 22 0 5
42 67 546 547 ?48 29 539 27 0 67 547 548 .005 -.1 .002 29 547 24 0 538 549 539 -
.005 -.1 .002 29 548 73 0 550 539 551 .005 .1 0 18 550 64 0 552 553 0 548 ?48 29
 551 72 0 553 548 533 -.005 .1 0 18 553 63 0 554 555 550 551 ?48 29 533 71 0 555
 551 64 -.005 -.1 0 18 555 62 0 556 532 553 533 ?48 17 556 0 557 558 559 555 560
 561 0 562 +18 532 61 0 563 564 555 64 ?48 17 563 0 565 545 562 532 566 567 0 56
8 +18 564 16 0 569 546 532 570 ?48 17 569 0 571 535 572 564 573 574 0 541 -18 54
6 19 0 573 538 564 549 ?48 29 570 18 0 564 0 549 .005 .1 .002 29 549 21 0 546 57
0 547 -.005 .1 .002 17 573 0 540 542 541 546 569 574 0 572 +15 540 3 0 541 527 5
75 17 542 0 540 537 573 538 576 577 0 558 +17 541 0 540 573 537 564 578 579 0 58
0 +16 574 7 0 ?573 577 579 581 0 0 48 17 572 0 571 569 554 546 559 536 0 576 -15
 571 82 0 554 582 0 17 554 0 571 572 535 553 552 583 0 559 +17 559 0 557 556 576
 553 572 536 0 560 +16 536 76 0 ?559 66 584 531 0 0 48 17 576 0 557 559 558 546
 542 577 0 0 -15 557 80 0 556 585 0 17 558 0 557 576 556 538 562 584 0 543 -16 5
77 10 0 ?542 544 574 586 0 0 48 16 544 13 0 ?537 587 577 588 0 0 48 30 586 11 0
 577 581 588 0 +-.005 .1 .002 1214306433183764e-31 -1 0 30 581 8 0 574 589 586 0
 +-.005 .1 .002 -1 0 0 30 588 14 0 544 586 590 0 +-.005 -.1 .002 1 0 0 30 590 69
 0 591 588 592 0 +.005 .1 0 -1214306433183764e-31 1 0 16 591 57 0 ?593 583 594 5
90 0 0 48 30 592 68 0 583 590 595 0 +-.005 .1 0 -1 0 0 16 583 53 0 ?554 561 591
 592 0 0 48 30 595 67 0 561 592 596 0 +-.005 .1 0 1214306433183764e-31 -1 0 16 5
61 49 0 ?556 567 583 595 0 0 48 30 596 66 0 567 595 597 0 +-.005 -.1 0 1 0 0 16
 567 45 0 ?563 579 561 596 0 0 48 30 597 90 0 587 596 598 0 +.005 -.1 .002 0 0 -
1 16 587 74 0 ?568 584 544 597 0 0 48 30 598 91 0 584 597 531 0 +-.005 -.1 .002
 0 0 -1 16 584 75 0 ?562 536 587 598 0 0 48 30 531 92 0 536 598 63 0 +-.005 .1 .
002 0 0 -1 17 562 0 565 563 543 555 558 584 0 566 +15 565 78 0 563 599 0 17 543
 0 565 562 545 538 537 544 0 0 -17 566 0 600 560 601 555 563 567 0 0 -15 600 44
 0 601 602 603 17 560 0 600 552 566 553 556 561 0 0 -17 601 0 600 566 552 532 59
3 591 0 0 -17 552 0 600 601 560 550 554 583 0 535 -17 593 0 604 580 568 550 601
 591 0 0 +15 604 84 0 593 529 0 17 580 0 604 578 593 564 535 66 0 0 -17 568 0 60
4 593 578 532 545 587 0 601 +17 578 0 604 568 580 67 541 579 0 0 -17 545 0 565 5
43 563 67 568 587 0 578 -16 579 4 0 ?541 574 567 589 0 0 48 30 589 5 0 579 605 5
81 0 +.005 .1 .002 -1214306433183764e-31 1 0 31 605 142 0 606 607 589 0 +1127570
259384924e-32 -.095 0 0 0 1 1 0 0 .002 16 606 120 0 ?608 594 609 605 0 0 48 31 6
07 143 0 594 610 605 0 +1127570259384924e-32 -.095 .002 0 0 1 1 0 0 .002 16 594
 123 0 ?611 591 606 607 0 0 48 31 610 180 0 612 613 607 0 +1127570259384924e-32
 .095 0 0 0 1 -1 0 0 .002 16 612 158 0 ?614 609 0 610 0 0 48 31 613 181 0 609 0
 610 0 +1127570259384924e-32 .095 .002 0 0 1 -1 0 0 .002 16 609 161 0 ?615 606 6
12 613 0 0 48 17 615 0 616 615 615 0 617 609 0 0 +15 616 167 0 615 618 619 17 61
7 0 575 617 617 0 615 609 0 0 -15 575 152 0 617 527 0 14 527 155 620 ?602 0 621
 61 622 +0 0 602 0 534 81 1 620 504 202 527 623 0 0 624 625 14 602 149 624 ?529
 527 600 61 626 -0 0 529 527 534 15 621 114 0 627 527 540 50 622 2 0 527 628 626
 0 +0 0 .002 0 0 1 1 0 0 13 534 29 0 0 0 0 0 0 65 527 51 628 139 0 629 630 622 0
 -1127570259384924e-32 -.095 .002 0 0 -1 .002 -1 0 0 50 626 65 0 602 622 631 0 +
0 0 0 0 0 1 1 0 0 50 631 86 0 599 626 632 0 +-.005 -.1 .002 0 1 0 0 0 1 14 599 7
9 633 ?629 585 565 61 631 -0 0 629 585 534 50 632 87 0 585 631 530 0 +-.005 .1 .
002 1 1214306433183764e-31 0 -1214306433183764e-31 1 0 14 585 81 634 ?599 582 55
7 61 632 -0 0 599 582 534 50 530 88 0 582 632 62 0 +-.005 .1 .002 0 -1 0 0 0 -1
 14 582 83 635 ?585 529 571 61 530 -0 0 585 529 534 81 1 635 507 202 582 636 0 6
37 634 638 14 529 85 637 ?582 602 604 61 62 -0 0 582 602 534 81 1 637 506 202 52
9 639 0 624 635 640 81 1 639 498 222 529 0 637 636 641 642 81 1 624 505 202 602
 643 0 620 637 644 83 3 640 .792156862745098 .819607843137255 .933333333333333 8
1 1 643 490 222 602 0 624 623 645 646 83 3 644 .792156862745098 .819607843137255
 .933333333333333 81 1 623 488 222 527 0 620 0 643 647 81 1 645 492 222 599 0 63
3 643 648 649 82 1 646 1160577139 81 1 633 509 202 599 645 0 634 650 651 81 1 64
8 494 222 585 0 634 645 636 652 82 1 649 1147863155 81 1 634 508 202 585 648 0 6
35 633 653 81 1 636 496 222 582 0 635 648 639 654 82 1 652 1148125299 82 1 654 1
148387443 83 3 653 .792156862745098 .819607843137255 .933333333333333 81 1 650 5
10 202 629 641 0 633 655 656 83 3 651 .792156862745098 .819607843137255 .9333333
33333333 14 629 126 650 ?618 599 657 61 628 +0 0 618 599 534 81 1 641 500 222 62
9 0 650 639 658 659 81 1 655 511 202 618 658 0 650 0 660 83 3 656 .7921568627450
98 .819607843137255 .933333333333333 14 618 164 655 ?0 629 616 61 630 +0 0 0 629
 534 81 1 658 502 222 618 0 655 641 0 661 83 3 660 .792156862745098 .81960784313
7255 .933333333333333 82 1 661 1157562483 51 630 177 0 618 0 628 0 -112757025938
4924e-32 .095 .002 0 0 -1 .002 -1 0 0 82 1 659 1153499251 15 657 129 0 611 629 6
62 17 611 0 657 611 611 0 627 594 0 0 +15 662 130 0 663 629 0 17 663 0 662 663 6
63 0 608 606 0 0 -17 608 0 603 608 608 0 663 606 0 0 +15 603 109 0 608 602 664 1
5 664 147 0 614 602 0 17 614 0 664 614 614 0 665 612 0 0 +17 665 0 619 665 665 0
 614 612 0 0 -15 619 168 0 665 618 0 17 627 0 621 627 627 0 611 594 0 0 -82 1 64
7 1161101427 82 1 642 1148649587 83 3 638 .792156862745098 .819607843137255 .933
333333333333 83 3 625 .792156862745098 .819607843137255 .933333333333333 17 535
 0 571 554 569 550 580 66 0 593 +19 528 95 0 48 0 65 61 S0 74 20 526 4 0 0 658 5
24 655 58 0 0 0 0 0 0 0 0 0 0 0 0 0 0 0 0 81 2 524 486 250 48 0 58 0 0 666 0 83
 1 666 1e3 84 6 525 pend 381 1 46 512 5 36 667 0 0 0 668 70 47 0 4 T36 0 0 4 20
 1 669 669 13 49 94 0 36 0 670 0 0 671 0 50 50 89 0 672 673 0 0 +.005 .1 .002 -1
 -1214306433183764e-31 0 1214306433183764e-31 -1 0 30 51 93 0 54 674 0 0 +.005 .
1 .002 0 0 -1 29 52 70 0 675 676 0 .005 -.1 0 19 53 28 0 36 671 0 677 V0 16 54 7
7 0 ?678 0 679 51 0 0 36 18 55 25 0 680 0 681 682 ?36 17 680 0 683 684 685 55 68
6 687 0 688 +18 681 22 0 685 55 689 690 ?36 29 682 27 0 55 690 691 .005 -.1 .002
 29 690 24 0 681 692 682 -.005 -.1 .002 29 691 73 0 693 682 694 .005 .1 0 18 693
 64 0 695 696 0 691 ?36 29 694 72 0 696 691 676 -.005 .1 0 18 696 63 0 697 698 6
93 694 ?36 29 676 71 0 698 694 52 -.005 -.1 0 18 698 62 0 699 675 696 676 ?36 17
 699 0 700 701 702 698 703 704 0 705 +18 675 61 0 706 707 698 52 ?36 17 706 0 70
8 688 705 675 709 710 0 711 +18 707 16 0 712 689 675 713 ?36 17 712 0 714 678 71
5 707 716 717 0 684 -18 689 19 0 716 681 707 692 ?36 29 713 18 0 707 0 692 .005
 .1 .002 29 692 21 0 689 713 690 -.005 .1 .002 17 716 0 683 685 684 689 712 717
 0 715 +15 683 3 0 684 670 718 17 685 0 683 680 716 681 719 720 0 701 +17 684 0
 683 716 680 707 721 722 0 723 +16 717 7 0 ?716 720 722 724 0 0 36 17 715 0 714
 712 697 689 702 679 0 719 -15 714 82 0 697 725 0 17 697 0 714 715 678 696 695 7
26 0 702 +17 702 0 700 699 719 696 715 679 0 703 +16 679 76 0 ?702 54 727 674 0
 0 36 17 719 0 700 702 701 689 685 720 0 0 -15 700 80 0 699 728 0 17 701 0 700 7
19 699 681 705 727 0 686 -16 720 10 0 ?685 687 717 729 0 0 36 16 687 13 0 ?680 7
30 720 731 0 0 36 30 729 11 0 720 724 731 0 +-.005 .1 .002 1214306433183764e-31
 -1 0 30 724 8 0 717 732 729 0 +-.005 .1 .002 -1 0 0 30 731 14 0 687 729 733 0 +
-.005 -.1 .002 1 0 0 30 733 69 0 734 731 735 0 +.005 .1 0 -1214306433183764e-31
 1 0 16 734 57 0 ?736 726 737 733 0 0 36 30 735 68 0 726 733 738 0 +-.005 .1 0 -
1 0 0 16 726 53 0 ?697 704 734 735 0 0 36 30 738 67 0 704 735 739 0 +-.005 .1 0
 1214306433183764e-31 -1 0 16 704 49 0 ?699 710 726 738 0 0 36 30 739 66 0 710 7
38 740 0 +-.005 -.1 0 1 0 0 16 710 45 0 ?706 722 704 739 0 0 36 30 740 90 0 730
 739 741 0 +.005 -.1 .002 0 0 -1 16 730 74 0 ?711 727 687 740 0 0 36 30 741 91 0
 727 740 674 0 +-.005 -.1 .002 0 0 -1 16 727 75 0 ?705 679 730 741 0 0 36 30 674
 92 0 679 741 51 0 +-.005 .1 .002 0 0 -1 17 705 0 708 706 686 698 701 727 0 709
 +15 708 78 0 706 742 0 17 686 0 708 705 688 681 680 687 0 0 -17 709 0 743 703 7
44 698 706 710 0 0 -15 743 44 0 744 745 746 17 703 0 743 695 709 696 699 704 0 0
 -17 744 0 743 709 695 675 736 734 0 0 -17 695 0 743 744 703 693 697 726 0 678 -
17 736 0 747 723 711 693 744 734 0 0 +15 747 84 0 736 672 0 17 723 0 747 721 736
 707 678 54 0 0 -17 711 0 747 736 721 675 688 730 0 744 +17 721 0 747 711 723 55
 684 722 0 0 -17 688 0 708 686 706 55 711 730 0 721 -16 722 4 0 ?684 717 710 732
 0 0 36 30 732 5 0 722 748 724 0 +.005 .1 .002 -1214306433183764e-31 1 0 31 748
 142 0 749 750 732 0 +1127570259384924e-32 -.095 0 0 0 1 1 0 0 .002 16 749 120 0
 ?751 737 752 748 0 0 36 31 750 143 0 737 753 748 0 +1127570259384924e-32 -.095
 .002 0 0 1 1 0 0 .002 16 737 123 0 ?754 734 749 750 0 0 36 31 753 180 0 755 756
 750 0 +1127570259384924e-32 .095 0 0 0 1 -1 0 0 .002 16 755 158 0 ?757 752 0 75
3 0 0 36 31 756 181 0 752 0 753 0 +1127570259384924e-32 .095 .002 0 0 1 -1 0 0 .
002 16 752 161 0 ?758 749 755 756 0 0 36 17 758 0 759 758 758 0 760 752 0 0 +15
 759 167 0 758 761 762 17 760 0 718 760 760 0 758 752 0 0 -15 718 152 0 760 670
 0 14 670 155 763 ?745 0 764 49 765 +0 0 745 0 677 81 1 763 504 202 670 766 0 0
 767 768 14 745 149 767 ?672 670 743 49 769 -0 0 672 670 677 15 764 114 0 770 67
0 683 50 765 2 0 670 771 769 0 +0 0 .002 0 0 1 1 0 0 13 677 29 0 0 0 0 0 0 53 67
0 51 771 139 0 772 773 765 0 -1127570259384924e-32 -.095 .002 0 0 -1 .002 -1 0 0
 50 769 65 0 745 765 774 0 +0 0 0 0 0 1 1 0 0 50 774 86 0 742 769 775 0 +-.005 -
.1 .002 0 1 0 0 0 1 14 742 79 776 ?772 728 708 49 774 -0 0 772 728 677 50 775 87
 0 728 774 673 0 +-.005 .1 .002 1 1214306433183764e-31 0 -1214306433183764e-31 1
 0 14 728 81 777 ?742 725 700 49 775 -0 0 742 725 677 50 673 88 0 725 775 50 0 +
-.005 .1 .002 0 -1 0 0 0 -1 14 725 83 778 ?728 672 714 49 673 -0 0 728 672 677 8
1 1 778 507 202 725 779 0 780 777 781 14 672 85 780 ?725 745 747 49 50 -0 0 725
 745 677 81 1 780 506 202 672 782 0 767 778 783 81 1 782 498 222 672 0 780 779 7
84 785 81 1 767 505 202 745 786 0 763 780 787 83 3 783 .792156862745098 .8196078
43137255 .933333333333333 81 1 786 490 222 745 0 767 766 788 789 83 3 787 .79215
6862745098 .819607843137255 .933333333333333 81 1 766 488 222 670 0 763 0 786 79
0 81 1 788 492 222 742 0 776 786 791 792 82 1 789 1160577139 81 1 776 509 202 74
2 788 0 777 793 794 81 1 791 494 222 728 0 777 788 779 795 82 1 792 1147863155 8
1 1 777 508 202 728 791 0 778 776 796 81 1 779 496 222 725 0 778 791 782 797 82
 1 795 1148125299 82 1 797 1148387443 83 3 796 .792156862745098 .819607843137255
 .933333333333333 81 1 793 510 202 772 784 0 776 798 799 83 3 794 .7921568627450
98 .819607843137255 .933333333333333 14 772 126 793 ?761 742 800 49 771 +0 0 761
 742 677 81 1 784 500 222 772 0 793 782 801 802 81 1 798 511 202 761 801 0 793 0
 803 83 3 799 .792156862745098 .819607843137255 .933333333333333 14 761 164 798
 ?0 772 759 49 773 +0 0 0 772 677 81 1 801 502 222 761 0 798 784 0 804 83 3 803
 .792156862745098 .819607843137255 .933333333333333 82 1 804 1157562483 51 773 1
77 0 761 0 771 0 -1127570259384924e-32 .095 .002 0 0 -1 .002 -1 0 0 82 1 802 115
3499251 15 800 129 0 754 772 805 17 754 0 800 754 754 0 770 737 0 0 +15 805 130
 0 806 772 0 17 806 0 805 806 806 0 751 749 0 0 -17 751 0 746 751 751 0 806 749
 0 0 +15 746 109 0 751 745 807 15 807 147 0 757 745 0 17 757 0 807 757 757 0 808
 755 0 0 +17 808 0 762 808 808 0 757 755 0 0 -15 762 168 0 808 761 0 17 770 0 76
4 770 770 0 754 737 0 0 -82 1 790 1161101427 82 1 785 1148649587 83 3 781 .79215
6862745098 .819607843137255 .933333333333333 83 3 768 .792156862745098 .81960784
3137255 .933333333333333 17 678 0 714 697 712 693 723 54 0 736 +19 671 95 0 36 0
 53 49 S0 74 20 669 4 0 0 801 667 798 46 0 0 0 0 0 0 0 0 0 0 0 0 0 0 0 0 81 2 66
7 486 250 36 0 46 0 0 809 0 83 1 809 1e3 84 6 668 pend 481 1 34 3937 5 24 810 0
 0 0 811 70 35 0 4 T24 0 0 4 20 1 812 812 13 37 94 0 24 0 813 0 0 814 0 50 38 89
 0 815 816 0 0 +.025 .025 .02 -1 -277555756156289e-30 0 277555756156289e-30 -1 0
 30 39 93 0 42 817 0 0 +.025 .025 .02 0 0 -1 29 40 70 0 818 819 0 .025 -.025 0 1
9 41 28 0 24 814 0 820 V0 16 42 77 0 ?821 0 822 39 0 0 24 18 43 25 0 823 0 824 8
25 ?24 17 823 0 826 827 828 43 829 830 0 831 +18 824 22 0 828 43 832 833 ?24 29
 825 27 0 43 833 834 .025 -.025 .02 29 833 24 0 824 835 825 -.025 -.025 .02 29 8
34 73 0 836 825 837 .025 .025 0 18 836 64 0 838 839 0 834 ?24 29 837 72 0 839 83
4 819 -.025 .025 0 18 839 63 0 840 841 836 837 ?24 29 819 71 0 841 837 40 -.025
 -.025 0 18 841 62 0 842 818 839 819 ?24 17 842 0 843 844 845 841 846 847 0 848
 +18 818 61 0 849 850 841 40 ?24 17 849 0 851 831 848 818 852 853 0 854 +18 850
 16 0 855 832 818 856 ?24 17 855 0 857 821 858 850 859 860 0 827 -18 832 19 0 85
9 824 850 835 ?24 29 856 18 0 850 0 835 .025 .025 .02 29 835 21 0 832 856 833 -.
025 .025 .02 17 859 0 826 828 827 832 855 860 0 858 +15 826 3 0 827 813 861 17 8
28 0 826 823 859 824 862 863 0 844 +17 827 0 826 859 823 850 864 865 0 866 +16 8
60 7 0 ?859 863 865 867 0 0 24 17 858 0 857 855 840 832 845 822 0 862 -15 857 82
 0 840 868 0 17 840 0 857 858 821 839 838 869 0 845 +17 845 0 843 842 862 839 85
8 822 0 846 +16 822 76 0 ?845 42 870 817 0 0 24 17 862 0 843 845 844 832 828 863
 0 0 -15 843 80 0 842 871 0 17 844 0 843 862 842 824 848 870 0 829 -16 863 10 0
 ?828 830 860 872 0 0 24 16 830 13 0 ?823 873 863 874 0 0 24 30 872 11 0 863 867
 874 0 +-.025 .025 .02 277555756156289e-30 -1 0 30 867 8 0 860 875 872 0 +-.025
 .025 .02 -1 0 0 30 874 14 0 830 872 876 0 +-.025 -.025 .02 1 0 0 30 876 69 0 87
7 874 878 0 +.025 .025 0 -277555756156289e-30 1 0 16 877 57 0 ?879 869 880 876 0
 0 24 30 878 68 0 869 876 881 0 +-.025 .025 0 -1 0 0 16 869 53 0 ?840 847 877 87
8 0 0 24 30 881 67 0 847 878 882 0 +-.025 .025 0 277555756156289e-30 -1 0 16 847
 49 0 ?842 853 869 881 0 0 24 30 882 66 0 853 881 883 0 +-.025 -.025 0 1 0 0 16
 853 45 0 ?849 865 847 882 0 0 24 30 883 90 0 873 882 884 0 +.025 -.025 .02 0 0
 -1 16 873 74 0 ?854 870 830 883 0 0 24 30 884 91 0 870 883 817 0 +-.025 -.025 .
02 0 0 -1 16 870 75 0 ?848 822 873 884 0 0 24 30 817 92 0 822 884 39 0 +-.025 .0
25 .02 0 0 -1 17 848 0 851 849 829 841 844 870 0 852 +15 851 78 0 849 885 0 17 8
29 0 851 848 831 824 823 830 0 0 -17 852 0 886 846 887 841 849 853 0 0 -15 886 4
4 0 887 888 889 17 846 0 886 838 852 839 842 847 0 0 -17 887 0 886 852 838 818 8
79 877 0 0 -17 838 0 886 887 846 836 840 869 0 821 -17 879 0 890 866 854 836 887
 877 0 0 +15 890 84 0 879 815 0 17 866 0 890 864 879 850 821 42 0 0 -17 854 0 89
0 879 864 818 831 873 0 887 +17 864 0 890 854 866 43 827 865 0 0 -17 831 0 851 8
29 849 43 854 873 0 864 -16 865 4 0 ?827 860 853 875 0 0 24 30 875 5 0 865 891 8
67 0 +.025 .025 .02 -277555756156289e-30 1 0 31 891 142 0 892 893 875 0 +-104083
4085586084e-32 0 0 0 0 1 1 0 0 .002 16 892 120 0 ?894 880 0 891 0 0 24 31 893 14
3 0 880 0 891 0 +-1040834085586084e-32 0 .02 0 0 1 1 0 0 .002 16 880 123 0 ?895
 877 892 893 0 0 24 17 895 0 896 895 895 0 897 880 0 0 +15 896 129 0 895 898 899
 17 897 0 861 897 897 0 895 880 0 0 -15 861 114 0 897 813 0 14 813 117 900 ?888
 0 826 37 901 +0 0 888 0 820 81 1 900 3930 202 813 902 0 0 903 904 14 888 111 90
3 ?815 813 886 37 905 -0 0 815 813 820 50 901 2 0 813 906 905 0 +0 0 .02 0 0 1 1
 0 0 13 820 29 0 0 0 0 0 0 41 813 51 906 139 0 898 0 901 0 --1040834085586084e-3
2 0 .02 0 0 -1 .002 -1 0 0 50 905 65 0 888 901 907 0 +0 0 0 0 0 1 1 0 0 50 907 8
6 0 885 905 908 0 +-.025 -.025 .02 0 1 0 0 0 1 14 885 79 909 ?898 871 851 37 907
 -0 0 898 871 820 50 908 87 0 871 907 816 0 +-.025 .025 .02 1 277555756156289e-3
0 0 -277555756156289e-30 1 0 14 871 81 910 ?885 868 843 37 908 -0 0 885 868 820
 50 816 88 0 868 908 38 0 +-.025 .025 .02 0 -1 0 0 0 -1 14 868 83 911 ?871 815 8
57 37 816 -0 0 871 815 820 81 1 911 3933 202 868 912 0 913 910 914 14 815 85 913
 ?868 888 890 37 38 -0 0 868 888 820 81 1 913 3932 202 815 915 0 903 911 916 81
 1 915 3926 222 815 0 913 912 917 918 81 1 903 3931 202 888 919 0 900 913 920 83
 3 916 .792156862745098 .819607843137255 .933333333333333 81 1 919 3918 222 888
 0 903 902 921 922 83 3 920 .792156862745098 .819607843137255 .933333333333333 8
1 1 902 3916 222 813 0 900 0 919 923 81 1 921 3920 222 885 0 909 919 924 925 82
 1 922 -1505820569 81 1 909 3935 202 885 921 0 910 926 927 81 1 924 3922 222 871
 0 910 921 912 928 82 1 925 -1513160601 81 1 910 3934 202 871 924 0 911 909 929
 81 1 912 3924 222 868 0 911 924 915 930 82 1 928 -1512898457 82 1 930 -15126363
13 83 3 929 .792156862745098 .819607843137255 .933333333333333 81 1 926 3936 202
 898 917 0 909 0 931 83 3 927 .792156862745098 .819607843137255 .933333333333333
 14 898 126 926 ?0 885 896 37 906 +0 0 0 885 820 81 1 917 3928 222 898 0 926 915
 0 932 83 3 931 .792156862745098 .819607843137255 .933333333333333 82 1 932 -150
7524505 82 1 923 -1505296281 82 1 918 -1512374169 83 3 914 .792156862745098 .819
607843137255 .933333333333333 83 3 904 .792156862745098 .819607843137255 .933333
333333333 15 899 130 0 933 898 0 17 933 0 899 933 933 0 894 892 0 0 -17 894 0 88
9 894 894 0 933 892 0 0 +15 889 109 0 894 888 0 17 821 0 857 840 855 836 866 42
 0 879 +19 814 95 0 24 0 41 37 S0 74 20 812 4 0 0 917 810 926 34 0 0 0 0 0 0 0 0
 0 0 0 0 0 0 0 0 81 2 810 181 250 24 0 34 0 0 934 0 83 1 934 1e3 84 5 811 mass28
1 1 22 3937 5 12 935 0 0 0 936 70 23 0 4 T12 0 0 4 20 1 937 937 13 25 94 0 12 0
 938 0 0 939 0 50 26 89 0 940 941 0 0 +.025 .025 .02 -1 -277555756156289e-30 0 2
77555756156289e-30 -1 0 30 27 93 0 30 942 0 0 +.025 .025 .02 0 0 -1 29 28 70 0 9
43 944 0 .025 -.025 0 19 29 28 0 12 939 0 945 V0 16 30 77 0 ?946 0 947 27 0 0 12
 18 31 25 0 948 0 949 950 ?12 17 948 0 951 952 953 31 954 955 0 956 +18 949 22 0
 953 31 957 958 ?12 29 950 27 0 31 958 959 .025 -.025 .02 29 958 24 0 949 960 95
0 -.025 -.025 .02 29 959 73 0 961 950 962 .025 .025 0 18 961 64 0 963 964 0 959
 ?12 29 962 72 0 964 959 944 -.025 .025 0 18 964 63 0 965 966 961 962 ?12 29 944
 71 0 966 962 28 -.025 -.025 0 18 966 62 0 967 943 964 944 ?12 17 967 0 968 969
 970 966 971 972 0 973 +18 943 61 0 974 975 966 28 ?12 17 974 0 976 956 973 943
 977 978 0 979 +18 975 16 0 980 957 943 981 ?12 17 980 0 982 946 983 975 984 985
 0 952 -18 957 19 0 984 949 975 960 ?12 29 981 18 0 975 0 960 .025 .025 .02 29 9
60 21 0 957 981 958 -.025 .025 .02 17 984 0 951 953 952 957 980 985 0 983 +15 95
1 3 0 952 938 986 17 953 0 951 948 984 949 987 988 0 969 +17 952 0 951 984 948 9
75 989 990 0 991 +16 985 7 0 ?984 988 990 992 0 0 12 17 983 0 982 980 965 957 97
0 947 0 987 -15 982 82 0 965 993 0 17 965 0 982 983 946 964 963 994 0 970 +17 97
0 0 968 967 987 964 983 947 0 971 +16 947 76 0 ?970 30 995 942 0 0 12 17 987 0 9
68 970 969 957 953 988 0 0 -15 968 80 0 967 996 0 17 969 0 968 987 967 949 973 9
95 0 954 -16 988 10 0 ?953 955 985 997 0 0 12 16 955 13 0 ?948 998 988 999 0 0 1
2 30 997 11 0 988 992 999 0 +-.025 .025 .02 277555756156289e-30 -1 0 30 992 8 0
 985 1000 997 0 +-.025 .025 .02 -1 0 0 30 999 14 0 955 997 1001 0 +-.025 -.025 .
02 1 0 0 30 1001 69 0 1002 999 1003 0 +.025 .025 0 -277555756156289e-30 1 0 16 1
002 57 0 ?1004 994 1005 1001 0 0 12 30 1003 68 0 994 1001 1006 0 +-.025 .025 0 -
1 0 0 16 994 53 0 ?965 972 1002 1003 0 0 12 30 1006 67 0 972 1003 1007 0 +-.025
 .025 0 277555756156289e-30 -1 0 16 972 49 0 ?967 978 994 1006 0 0 12 30 1007 66
 0 978 1006 1008 0 +-.025 -.025 0 1 0 0 16 978 45 0 ?974 990 972 1007 0 0 12 30
 1008 90 0 998 1007 1009 0 +.025 -.025 .02 0 0 -1 16 998 74 0 ?979 995 955 1008
 0 0 12 30 1009 91 0 995 1008 942 0 +-.025 -.025 .02 0 0 -1 16 995 75 0 ?973 947
 998 1009 0 0 12 30 942 92 0 947 1009 27 0 +-.025 .025 .02 0 0 -1 17 973 0 976 9
74 954 966 969 995 0 977 +15 976 78 0 974 1010 0 17 954 0 976 973 956 949 948 95
5 0 0 -17 977 0 1011 971 1012 966 974 978 0 0 -15 1011 44 0 1012 1013 1014 17 97
1 0 1011 963 977 964 967 972 0 0 -17 1012 0 1011 977 963 943 1004 1002 0 0 -17 9
63 0 1011 1012 971 961 965 994 0 946 -17 1004 0 1015 991 979 961 1012 1002 0 0 +
15 1015 84 0 1004 940 0 17 991 0 1015 989 1004 975 946 30 0 0 -17 979 0 1015 100
4 989 943 956 998 0 1012 +17 989 0 1015 979 991 31 952 990 0 0 -17 956 0 976 954
 974 31 979 998 0 989 -16 990 4 0 ?952 985 978 1000 0 0 12 30 1000 5 0 990 1016
 992 0 +.025 .025 .02 -277555756156289e-30 1 0 31 1016 142 0 1017 1018 1000 0 +-
1040834085586084e-32 0 0 0 0 1 1 0 0 .002 16 1017 120 0 ?1019 1005 0 1016 0 0 12
 31 1018 143 0 1005 0 1016 0 +-1040834085586084e-32 0 .02 0 0 1 1 0 0 .002 16 10
05 123 0 ?1020 1002 1017 1018 0 0 12 17 1020 0 1021 1020 1020 0 1022 1005 0 0 +1
5 1021 129 0 1020 1023 1024 17 1022 0 986 1022 1022 0 1020 1005 0 0 -15 986 114
 0 1022 938 0 14 938 117 1025 ?1013 0 951 25 1026 +0 0 1013 0 945 81 1 1025 3930
 202 938 1027 0 0 1028 1029 14 1013 111 1028 ?940 938 1011 25 1030 -0 0 940 938
 945 50 1026 2 0 938 1031 1030 0 +0 0 .02 0 0 1 1 0 0 13 945 29 0 0 0 0 0 0 29 9
38 51 1031 139 0 1023 0 1026 0 --1040834085586084e-32 0 .02 0 0 -1 .002 -1 0 0 5
0 1030 65 0 1013 1026 1032 0 +0 0 0 0 0 1 1 0 0 50 1032 86 0 1010 1030 1033 0 +-
.025 -.025 .02 0 1 0 0 0 1 14 1010 79 1034 ?1023 996 976 25 1032 -0 0 1023 996 9
45 50 1033 87 0 996 1032 941 0 +-.025 .025 .02 1 277555756156289e-30 0 -27755575
6156289e-30 1 0 14 996 81 1035 ?1010 993 968 25 1033 -0 0 1010 993 945 50 941 88
 0 993 1033 26 0 +-.025 .025 .02 0 -1 0 0 0 -1 14 993 83 1036 ?996 940 982 25 94
1 -0 0 996 940 945 81 1 1036 3933 202 993 1037 0 1038 1035 1039 14 940 85 1038 ?
993 1013 1015 25 26 -0 0 993 1013 945 81 1 1038 3932 202 940 1040 0 1028 1036 10
41 81 1 1040 3926 222 940 0 1038 1037 1042 1043 81 1 1028 3931 202 1013 1044 0 1
025 1038 1045 83 3 1041 .792156862745098 .819607843137255 .933333333333333 81 1
 1044 3918 222 1013 0 1028 1027 1046 1047 83 3 1045 .792156862745098 .8196078431
37255 .933333333333333 81 1 1027 3916 222 938 0 1025 0 1044 1048 81 1 1046 3920
 222 1010 0 1034 1044 1049 1050 82 1 1047 -1505820569 81 1 1034 3935 202 1010 10
46 0 1035 1051 1052 81 1 1049 3922 222 996 0 1035 1046 1037 1053 82 1 1050 -1513
160601 81 1 1035 3934 202 996 1049 0 1036 1034 1054 81 1 1037 3924 222 993 0 103
6 1049 1040 1055 82 1 1053 -1512898457 82 1 1055 -1512636313 83 3 1054 .79215686
2745098 .819607843137255 .933333333333333 81 1 1051 3936 202 1023 1042 0 1034 0
 1056 83 3 1052 .792156862745098 .819607843137255 .933333333333333 14 1023 126 1
051 ?0 1010 1021 25 1031 +0 0 0 1010 945 81 1 1042 3928 222 1023 0 1051 1040 0 1
057 83 3 1056 .792156862745098 .819607843137255 .933333333333333 82 1 1057 -1507
524505 82 1 1048 -1505296281 82 1 1043 -1512374169 83 3 1039 .792156862745098 .8
19607843137255 .933333333333333 83 3 1029 .792156862745098 .819607843137255 .933
333333333333 15 1024 130 0 1058 1023 0 17 1058 0 1024 1058 1058 0 1019 1017 0 0
 -17 1019 0 1014 1019 1019 0 1058 1017 0 0 +15 1014 109 0 1019 1013 0 17 946 0 9
82 965 980 961 991 30 0 1004 +19 939 95 0 12 0 29 25 S0 74 20 937 4 0 0 1042 935
 1051 22 0 0 0 0 0 0 0 0 0 0 0 0 0 0 0 0 81 2 935 181 250 12 0 22 0 0 1059 0 83
 1 1059 1e3 84 5 936 mass381 1 10 159 5 7 1060 0 0 0 1061 70 11 0 4 T7 0 0 4 20
 1 1062 1062 13 13 94 0 7 0 1063 0 0 1064 0 50 14 89 0 1063 1065 0 0 +2.5 1.5 .0
02 -1 -1480297366166874e-31 0 1480297366166874e-31 -1 0 30 15 93 0 18 1066 0 0 +
2.5 1.5 .002 0 0 -1 29 16 70 0 1067 1068 0 2.5 -1.5 0 19 17 28 0 7 1064 0 1069 V
0 16 18 77 0 ?1070 0 1071 15 0 0 7 18 19 25 0 1072 0 1073 1074 ?7 17 1072 0 1075
 1076 1077 19 1078 1079 0 1080 +18 1073 22 0 1077 19 1081 1082 ?7 29 1074 27 0 1
9 1082 1083 2.5 -1.5 .002 29 1082 24 0 1073 1084 1074 -2.5 -1.5 .002 29 1083 73
 0 1085 1074 1086 2.5 1.5 0 18 1085 64 0 1087 1088 0 1083 ?7 29 1086 72 0 1088 1
083 1068 -2.5 1.5 0 18 1088 63 0 1089 1090 1085 1086 ?7 29 1068 71 0 1090 1086 1
6 -2.5 -1.5 0 18 1090 62 0 1091 1067 1088 1068 ?7 17 1091 0 1092 1093 1094 1090
 1095 1096 0 1097 +18 1067 61 0 1098 1099 1090 16 ?7 17 1098 0 1100 1080 1097 10
67 1101 1102 0 1103 +18 1099 16 0 1104 1081 1067 1105 ?7 17 1104 0 1106 1070 110
7 1099 1108 1109 0 1076 -18 1081 19 0 1108 1073 1099 1084 ?7 29 1105 18 0 1099 0
 1084 2.5 1.5 .002 29 1084 21 0 1081 1105 1082 -2.5 1.5 .002 17 1108 0 1075 1077
 1076 1081 1104 1109 0 1107 +15 1075 3 0 1076 1110 0 17 1077 0 1075 1072 1108 10
73 1111 1112 0 1093 +17 1076 0 1075 1108 1072 1099 1113 1114 0 1115 +16 1109 7 0
 ?1108 1112 1114 1116 0 0 7 17 1107 0 1106 1104 1089 1081 1094 1071 0 1111 -15 1
106 82 0 1089 1117 0 17 1089 0 1106 1107 1070 1088 1087 1118 0 1094 +17 1094 0 1
092 1091 1111 1088 1107 1071 0 1095 +16 1071 76 0 ?1094 18 1119 1066 0 0 7 17 11
11 0 1092 1094 1093 1081 1077 1112 0 0 -15 1092 80 0 1091 1120 0 17 1093 0 1092
 1111 1091 1073 1097 1119 0 1078 -16 1112 10 0 ?1077 1079 1109 1121 0 0 7 16 107
9 13 0 ?1072 1122 1112 1123 0 0 7 30 1121 11 0 1112 1116 1123 0 +-2.5 1.5 .002 1
480297366166874e-31 -1 0 30 1116 8 0 1109 1124 1121 0 +-2.5 1.5 .002 -1 0 0 30 1
123 14 0 1079 1121 1125 0 +-2.5 -1.5 .002 1 0 0 30 1125 69 0 1126 1123 1127 0 +2
.5 1.5 0 -1480297366166874e-31 1 0 16 1126 57 0 ?1128 1118 0 1125 0 0 7 30 1127
 68 0 1118 1125 1129 0 +-2.5 1.5 0 -1 0 0 16 1118 53 0 ?1089 1096 1126 1127 0 0
 7 30 1129 67 0 1096 1127 1130 0 +-2.5 1.5 0 1480297366166874e-31 -1 0 16 1096 4
9 0 ?1091 1102 1118 1129 0 0 7 30 1130 66 0 1102 1129 1131 0 +-2.5 -1.5 0 1 0 0
 16 1102 45 0 ?1098 1114 1096 1130 0 0 7 30 1131 90 0 1122 1130 1132 0 +2.5 -1.5
 .002 0 0 -1 16 1122 74 0 ?1103 1119 1079 1131 0 0 7 30 1132 91 0 1119 1131 1066
 0 +-2.5 -1.5 .002 0 0 -1 16 1119 75 0 ?1097 1071 1122 1132 0 0 7 30 1066 92 0 1
071 1132 15 0 +-2.5 1.5 .002 0 0 -1 17 1097 0 1100 1098 1078 1090 1093 1119 0 11
01 +15 1100 78 0 1098 1133 0 17 1078 0 1100 1097 1080 1073 1072 1079 0 0 -17 110
1 0 1134 1095 1135 1090 1098 1102 0 0 -15 1134 44 0 1135 1136 0 17 1095 0 1134 1
087 1101 1088 1091 1096 0 0 -17 1135 0 1134 1101 1087 1067 1128 1126 0 0 -17 108
7 0 1134 1135 1095 1085 1089 1118 0 1070 -17 1128 0 1137 1115 1103 1085 1135 112
6 0 0 +15 1137 84 0 1128 1063 0 17 1115 0 1137 1113 1128 1099 1070 18 0 0 -17 11
03 0 1137 1128 1113 1067 1080 1122 0 1135 +17 1113 0 1137 1103 1115 19 1076 1114
 0 0 -17 1080 0 1100 1078 1098 19 1103 1122 0 1113 -16 1114 4 0 ?1076 1109 1102
 1124 0 0 7 30 1124 5 0 1114 0 1116 0 +2.5 1.5 .002 -1480297366166874e-31 1 0 17
 1070 0 1106 1089 1104 1085 1115 18 0 1128 +14 1063 85 1138 ?1117 0 1137 13 14 -
0 0 1117 0 1069 81 1 1138 153 202 1063 1139 0 0 1140 1141 14 1117 83 1140 ?1120
 1063 1106 13 1065 -0 0 1120 1063 1069 13 1069 29 0 0 0 0 0 0 17 1063 81 1 1140
 154 202 1117 1142 0 1138 1143 1144 14 1120 81 1143 ?1133 1117 1092 13 1145 -0 0
 1133 1117 1069 50 1065 88 0 1117 1145 14 0 +-2.5 1.5 .002 0 -1 0 0 0 -1 50 1145
 87 0 1120 1146 1065 0 +-2.5 1.5 .002 1 1480297366166874e-31 0 -1480297366166874
e-31 1 0 50 1146 86 0 1133 1147 1145 0 +-2.5 -1.5 .002 0 1 0 0 0 1 14 1133 79 11
48 ?1110 1120 1100 13 1146 -0 0 1110 1120 1069 50 1147 65 0 1136 1149 1146 0 +0
 0 0 0 0 1 1 0 0 14 1136 43 1150 ?0 1110 1134 13 1147 -0 0 0 1110 1069 50 1149 2
 0 1110 0 1147 0 +0 0 .002 0 0 1 1 0 0 14 1110 1 1151 ?1136 1133 1075 13 1149 +0
 0 1136 1133 1069 81 1 1151 157 202 1110 1152 0 1148 1150 1153 81 1 1152 151 222
 1110 0 1151 1154 0 1155 81 1 1148 156 202 1133 1156 0 1143 1151 1157 81 1 1150
 158 202 1136 1154 0 1151 0 1158 83 3 1153 .792156862745098 .819607843137255 .93
3333333333333 81 1 1154 149 222 1136 0 1150 1156 1152 1159 83 3 1158 .7921568627
45098 .819607843137255 .933333333333333 81 1 1156 147 222 1133 0 1148 1160 1154
 1161 82 1 1159 1031340139 81 1 1160 145 222 1120 0 1143 1142 1156 1162 82 1 116
1 1032257643 81 1 1143 155 202 1120 1160 0 1140 1148 1163 81 1 1142 143 222 1117
 0 1140 1139 1160 1164 82 1 1162 1032519787 81 1 1139 141 222 1063 0 1138 0 1142
 1165 82 1 1164 1032781931 82 1 1165 1033044075 83 3 1163 .792156862745098 .8196
07843137255 .933333333333333 83 3 1157 .792156862745098 .819607843137255 .933333
333333333 82 1 1155 1025704043 83 3 1144 .792156862745098 .819607843137255 .9333
33333333333 83 3 1141 .792156862745098 .819607843137255 .933333333333333 19 1064
 95 0 7 0 17 13 S0 74 20 1062 4 0 0 1152 1060 1150 10 0 0 0 0 0 0 0 0 0 0 0 0 0
 0 0 0 81 2 1060 139 250 7 0 10 0 0 1166 0 83 1 1166 1e3 84 8 1061 platform74 20
 6 1 0 0 2 0 0 0 0 0 0 0 0 0 0 0 0 0 0 0 0 0 0 0 1 0 
